<?xml version="1.0" encoding="UTF-8"?>
<!-- Generated by Pixelmator Pro 3.8 -->
<svg width="2503" height="1168" viewBox="0 0 2503 1168" xmlns="http://www.w3.org/2000/svg">
    <g id="Logo-dark">
        <g id="Logomark">
            <path id="Shape" fill="#b8ece8" fill-rule="evenodd" stroke="none" d="M 350.5 222.198608 C 360.182526 216.337585 366.032532 212.341919 369.746796 209.537964 C 373.46106 206.73407 381.674988 200.267639 388 195.168152 C 394.325012 190.068726 404.225006 182.727783 410 178.855042 C 415.774994 174.9823 427.024994 168.58606 435 164.641174 C 442.975006 160.696289 454 156.024109 459.5 154.258606 C 465 152.493103 473.238342 150.164856 477.807434 149.084717 C 482.376526 148.004578 491.15155 146.570435 497.307434 145.897766 C 504.497498 145.112061 514.22168 144.905579 524.5 145.320313 C 533.299988 145.675354 544.325012 146.668518 549 147.527283 C 553.674988 148.386108 562.045532 150.608887 567.601135 152.466797 C 573.156799 154.324768 582.156799 158.091064 587.601135 160.836365 C 593.045532 163.581726 600.650024 167.104126 604.5 168.66394 C 611.5 171.5 611.5 171.5 647.5 171.5 C 678.095398 171.5 684.926208 171.772095 693 173.312256 C 698.224976 174.309021 706.549988 176.468506 711.5 178.111206 C 716.450012 179.753906 723.769043 182.9599 727.764465 185.235596 C 731.759949 187.511292 737.498596 191.784424 740.517029 194.731445 C 743.535461 197.678467 746.883423 201.811401 747.957031 203.915771 C 749.908997 207.741882 749.908997 207.741882 739.704468 208.239685 C 734.008911 208.517578 724.197754 209.943176 717.5 211.466187 C 710.900024 212.96698 697.503296 216.839478 687.729492 220.071716 C 677.95575 223.304016 664.45575 228.604492 657.729492 231.850525 C 651.003296 235.096619 641.224976 240.588074 636 244.053833 C 630.775024 247.519531 623.116455 253.762756 618.981018 257.927612 C 613.702576 263.24353 610.220703 267.892029 607.296265 273.527344 C 605.005066 277.942444 602.227539 284.812866 601.124023 288.795044 C 600.020508 292.777222 598.848022 299.06488 598.518494 302.7677 C 598.173462 306.64502 598.48877 313.210632 599.262085 318.25 C 600.000549 323.0625 600.356201 326.986084 600.052429 326.969055 C 599.748596 326.952087 598.071716 325.039551 596.325989 322.719055 C 594.580261 320.39856 591.743164 315.799988 590.021362 312.5 C 587.669434 307.992432 587.012207 307.246216 587.378967 309.5 C 587.647522 311.150024 589.045532 317.900024 590.485657 324.5 C 591.925781 331.099976 593.558899 340.16394 594.114807 344.642029 C 594.670715 349.120178 594.984802 354.745178 594.812805 357.142029 C 594.5 361.5 594.5 361.5 591.189819 355 C 589.369202 351.424988 586.014404 345.626953 583.73468 342.115417 C 581.454956 338.603882 579.450684 336.148071 579.28064 336.65802 C 579.110657 337.16803 580.09021 340.338257 581.457458 343.703003 C 582.824707 347.067749 584.89325 353.123596 586.054199 357.1604 C 587.560364 362.3974 588.330078 368.65387 588.741028 379 C 589.080078 387.535461 588.852905 397.214294 588.188782 402.529541 C 587.568298 407.495789 585.891479 415.145813 584.462524 419.529541 C 583.033569 423.913269 580.91333 429.525024 579.750977 432 C 577.637512 436.5 577.637512 436.5 576.85791 424.5 C 576.358765 416.817078 575.012573 408.284363 573.115906 400.781982 C 571.486633 394.337036 568.074463 384.212036 565.533386 378.281982 C 562.99231 372.351868 559.054443 364.240845 556.782532 360.257446 C 554.51062 356.273987 552.458923 353.207764 552.223145 353.443542 C 551.987366 353.679321 552.720764 356.713501 553.852966 360.186096 C 554.985168 363.658752 556.811218 370.099976 557.91095 374.5 C 559.01062 378.900024 560.60553 387.810547 561.4552 394.301208 C 562.304871 400.79187 563 411.610596 563 418.342773 C 563 425.074951 562.307861 435.860657 561.461975 442.310974 C 560.616028 448.761353 558.806702 457.967651 557.441223 462.76947 C 556.075745 467.571228 552.043884 477.349976 548.481506 484.5 C 544.919067 491.650024 540.616089 499.075012 538.919312 501 C 536.08313 504.217712 535.88269 504.29834 536.43457 502 C 536.764709 500.625 537.814514 495.036804 538.767456 489.581787 C 539.817139 483.572754 540.5 474.507568 540.5 466.581787 C 540.5 457.218567 539.935486 450.941711 538.514038 444.5 L 536.528015 435.5 L 535.812439 447.5 C 535.418884 454.099976 534.403076 463.886475 533.555115 469.247803 C 532.707214 474.60907 530.448669 483.834045 528.536255 489.747803 C 526.623779 495.661499 522.147705 506.392761 518.589355 513.595093 C 515.031006 520.797363 509.423798 530.697388 506.128967 535.595093 C 502.834137 540.492798 497.224518 548.099976 493.663177 552.5 C 490.101837 556.899963 483.208191 564.845154 478.343994 570.155884 C 473.479797 575.466553 464.125275 585.591553 457.556183 592.655884 C 450.987061 599.720154 442.066162 609.774963 437.731964 615 C 433.397766 620.224976 426.32605 629.696228 422.017059 636.047241 C 417.708069 642.398254 411.602081 652.298218 408.448181 658.047241 C 405.294281 663.796265 400.792603 673.060364 398.444458 678.634155 C 396.096283 684.207947 392.596558 693.657959 390.667267 699.634155 C 388.737976 705.610352 386.203644 715.450012 385.03537 721.5 C 383.867126 727.549988 382.637177 737.567017 382.302124 743.760132 C 381.935486 750.537476 382.184998 759.079956 382.928894 765.217834 C 383.608673 770.826538 385.254669 779.610046 386.5867 784.736755 C 387.918732 789.863464 390.560303 797.966309 392.456818 802.743164 C 394.353363 807.519897 395.811859 811.521484 395.697906 811.635376 C 395.583984 811.74939 392.342834 809.741211 388.495361 807.172852 C 384.647919 804.604431 377.179016 798.227356 371.897827 793.001526 C 366.616638 787.775696 360.398499 780.890259 358.079712 777.700439 C 355.760925 774.510742 352.120026 768.660767 349.988831 764.700439 C 347.857635 760.740234 344.740265 753.389526 343.06134 748.36554 C 341.336487 743.204163 339.436279 734.505066 338.692566 728.36554 C 337.376404 717.5 337.376404 717.5 336.606842 725.894897 C 336.183594 730.512146 336.139526 737.037109 336.508972 740.394897 C 336.878387 743.752686 337.889282 749.424988 338.755402 753 C 339.621521 756.575012 341.582764 762.60144 343.11377 766.392151 C 344.644745 770.182861 348.019348 776.794434 350.612885 781.084595 C 353.20639 785.374756 358.321869 792.400208 361.980621 796.696655 C 365.639343 800.993164 374.00296 808.996521 380.566437 814.481995 C 387.129883 819.967529 396.484009 828.290588 401.353333 832.977783 C 406.222656 837.665039 412.972656 844.948975 416.353333 849.164429 C 419.734009 853.379883 424.024994 859.354858 425.888885 862.4422 C 427.752777 865.529541 429.047852 868.285522 428.766785 868.566528 C 428.485748 868.847595 421.146454 865.679688 412.457275 861.526733 C 403.768097 857.373779 392.798065 851.843872 388.079376 849.237976 C 383.360718 846.63208 379.049988 844.361328 378.5 844.191772 C 377.950012 844.022339 380.469238 846.72229 384.098328 850.191772 C 387.727417 853.661316 395.385864 860.17041 401.117126 864.656616 C 406.848419 869.1427 416.704163 876.092957 423.018829 880.101563 C 429.333466 884.110229 439.922302 890.159058 446.54953 893.543457 C 453.176788 896.927917 463.526794 901.614746 469.54953 903.958618 C 475.572296 906.30249 486.410248 909.722168 493.633881 911.557861 C 500.857483 913.393616 510.195007 915.206116 514.383911 915.585693 C 518.572754 915.965271 522 916.650513 522 917.108521 C 522 917.566406 517.837524 921.590637 512.75 926.051147 C 507.662506 930.511719 498.549988 937.47052 492.5 941.515259 C 486.450012 945.559937 476.880463 951.194397 471.234375 954.036194 C 465.588287 956.878052 457.0383 960.747681 452.234375 962.635376 C 447.430481 964.523071 439.384247 967.190186 434.353882 968.562256 C 429.323517 969.934326 421.448517 971.718506 416.853882 972.5271 C 412.259247 973.335693 405.350006 973.960815 401.5 973.916382 C 396.042297 973.853271 392.703979 973.113098 386.348419 970.557068 C 381.865051 968.753967 373.765045 964.895447 368.348419 961.982544 C 362.931793 959.06958 354.578827 954.056274 349.786285 950.841736 C 344.993744 947.627258 337.118744 941.673401 332.286285 937.611023 C 327.453827 933.548645 320.274658 926.911743 316.33255 922.862427 C 312.390442 918.81311 306.356232 912.125 302.923157 908 C 299.490112 903.875 293.55365 895.775024 289.731018 890 C 285.908386 884.224976 280.646637 875.224976 278.038177 870 C 275.429749 864.775024 271.399872 855.844727 269.082886 850.155029 C 266.7659 844.465332 263.343536 833.748657 261.477631 826.340149 C 259.611725 818.931641 257.503448 808.286865 256.792542 802.685059 C 256.081665 797.083252 255.5 783.5 255.5 772.5 C 255.5 754.656433 255.799103 750.996948 258.274139 738.559631 C 259.799896 730.892456 262.925385 718.974487 265.219635 712.075256 C 267.513916 705.176025 272.873016 692.549194 277.128784 684.015625 C 281.384552 675.482056 288.004639 663.775024 291.840057 658 C 295.675507 652.224976 302.780029 642.549988 307.627899 636.5 C 312.475739 630.450012 324.3302 617.589722 333.9711 607.921692 C 343.612 598.253601 360.960144 581.764465 372.522552 571.279175 C 384.08493 560.793884 399.252197 546.324402 406.22757 539.124878 C 413.202942 531.925293 422.14856 521.864441 426.10675 516.767395 C 430.064972 511.670288 435.982056 503.450012 439.25589 498.5 C 442.529724 493.549988 446.904968 486.125 448.978668 482 C 451.052368 477.875 454.353027 470.205505 456.313477 464.956665 C 458.273895 459.707825 460.805359 450.862183 461.938934 445.299561 C 463.07254 439.737 463.996613 431.431519 463.992432 426.842896 C 463.988281 422.254333 463.514618 415.575012 462.939819 412 C 462.365021 408.424988 460.352112 400.87616 458.466675 395.224792 C 456.333221 388.829956 453.122009 381.961731 449.96344 377.037781 C 447.172089 372.68634 443.162598 367.347839 441.053436 365.1745 C 438.944305 363.00116 434.418671 359.321594 430.996521 356.99762 C 427.574371 354.673706 421.955902 351.494324 418.511078 349.932373 C 415.066254 348.370422 408.704498 346.160217 404.373871 345.020874 C 400.043243 343.881531 392.450012 342.439453 387.5 341.816223 C 382.209442 341.150085 372.523682 340.91626 364 341.24884 C 355.395447 341.584534 345.637482 342.637024 340 343.837402 C 334.774994 344.949951 327.125 346.792114 323 347.931091 C 318.875 349.070068 311.450012 351.513855 306.5 353.361694 C 301.550018 355.209595 292.811493 359.076355 287.081085 361.95459 C 281.350677 364.832886 273.179474 369.347778 268.922882 371.987854 C 264.66626 374.627869 256.754791 380.152222 251.341797 384.264221 C 245.928802 388.37616 238.057068 394.836426 233.849045 398.620239 C 229.641022 402.404114 223.304749 408.650024 219.768417 412.5 C 216.232101 416.349976 211.012543 422.402466 208.169388 425.94989 C 205.326218 429.497375 203 432.807373 203 433.305481 C 203 433.803589 207.807602 429.621033 213.683578 424.010925 C 219.55954 418.400818 228.897034 410.087341 234.433563 405.53656 C 239.970108 400.985779 249.507385 393.918762 255.627518 389.832153 C 261.74765 385.745483 272.805023 379.388062 280.199463 375.704529 C 287.593903 372.020996 298.78653 367.164368 305.07196 364.912048 C 311.357391 362.659668 321.073242 359.775696 326.662781 358.503235 C 332.252289 357.230713 341.883942 355.630981 348.066437 354.948242 C 354.867981 354.197144 364.097778 353.949707 371.437317 354.321716 C 378.108826 354.659851 386.75412 355.606873 390.649078 356.426208 C 394.544067 357.245544 400.629578 359.006958 404.172485 360.340515 C 407.715393 361.674072 413.288452 364.250671 416.557068 366.066345 C 419.825684 367.882019 425.875092 372.7724 430.000244 376.933777 C 434.440216 381.412842 438.881561 387.108643 440.885345 390.893494 C 442.74704 394.409912 445.130798 400.034912 446.182617 403.393494 C 447.344666 407.104065 448.327667 414.053406 448.687988 421.105347 C 449.122681 429.613098 448.841614 435.311157 447.634918 442.453491 C 446.729614 447.812012 444.806854 455.639587 443.362122 459.848145 C 441.917389 464.056641 438.498749 471.971252 435.765137 477.436157 C 433.031494 482.901062 427.698242 491.987854 423.913452 497.628967 C 420.128662 503.270142 413.681793 511.910889 409.587128 516.830566 C 405.492432 521.750305 398.110199 529.993103 393.182159 535.147949 C 388.25412 540.302734 375.752167 552.165771 365.400055 561.510132 C 355.047943 570.854553 339.58548 584.863159 331.039032 592.64032 C 322.492554 600.41748 310.897949 611.892517 305.273224 618.14032 C 299.648499 624.388123 291.323517 634.306396 286.773224 640.180908 C 282.222961 646.05542 275.597748 655.505432 272.050537 661.180908 C 268.503326 666.856445 262.994812 676.674988 259.809387 683 C 256.623993 689.325012 251.993896 699.994995 249.52034 706.711182 C 247.046768 713.427368 243.691315 724.227356 242.063782 730.711182 C 240.436234 737.195068 238.51857 747.224976 237.802307 753 C 237.086029 758.775024 236.538361 770.924988 236.585251 780 C 236.64743 792.032837 237.26944 800.088013 238.88269 809.752625 C 240.099396 817.041565 242.632431 828.615356 244.511673 835.472168 C 246.3909 842.328857 249.745102 852.790222 251.965454 858.719482 C 254.185806 864.648804 258.685486 874.900024 261.964722 881.5 C 265.243927 888.099976 270.681 897.746216 274.047089 902.936157 C 277.413177 908.125977 282.34549 915.265381 285.007813 918.801392 C 287.670135 922.337402 293.545532 929.262085 298.06424 934.189514 C 305.747437 942.567627 306.171539 943.257019 304.605743 944.822815 C 303.039948 946.388611 302.734222 946.384033 299.889832 944.751526 C 298.216949 943.791443 292.778687 940.218628 287.80484 936.811951 C 282.830963 933.405273 274.652618 926.958008 269.630707 922.484619 C 264.608826 918.01123 256.735718 910.334717 252.134949 905.425598 C 247.534164 900.516479 240.334167 891.932922 236.134949 886.350952 C 231.93573 880.768982 225.692749 871.543945 222.261688 865.850952 C 218.830597 860.157959 213.591553 850.099976 210.619339 843.5 C 207.647141 836.900024 203.815613 827.224976 202.104843 822 C 200.394073 816.775024 197.873566 807.549988 196.503693 801.5 C 195.13382 795.449951 193.447586 785.549988 192.756516 779.5 C 192.06543 773.450012 191.5 759.935059 191.5 749.466736 C 191.5 736.213257 192.065414 726.495972 193.361954 717.466736 C 194.386032 710.335022 196.719452 698.424988 198.547348 691 C 200.375229 683.575012 203.511856 672.775024 205.517624 667 C 207.523392 661.224976 212.056366 650.46637 215.590912 643.09198 C 219.125458 635.71759 221.839157 629.505798 221.621368 629.288025 C 221.403564 629.07019 219.197281 631.953796 216.718491 635.695984 C 214.2397 639.438171 209.939651 646.774963 207.162811 652 C 204.385956 657.224976 200.049454 666.674988 197.526138 673 C 195.002808 679.325012 191.600128 689 189.96463 694.5 C 188.329117 700 185.901016 709.900024 184.568848 716.5 C 183.236679 723.099976 181.595566 734.056641 180.921921 740.848145 C 180.164673 748.482544 179.937683 758.789307 180.327286 767.848145 C 180.673889 775.906616 181.640625 786.775024 182.475616 792 C 183.310608 797.224976 184.630478 804.424988 185.408676 808 C 186.186859 811.574951 187.117462 816.299988 187.476669 818.5 C 188.10524 822.349731 187.925827 822.188477 182.701218 814.207642 C 179.7155 809.646912 175.000229 801.096924 172.222824 795.207642 C 169.445419 789.318481 165.746521 780.224976 164.003036 775 C 162.259552 769.775024 159.76091 760.325012 158.4505 754 C 157.140106 747.674988 155.37767 737.189453 154.533981 730.698792 C 153.651733 723.911499 153 711.288452 153 700.988037 C 153 691.137756 153.475845 678.448303 154.057419 672.789185 C 154.638992 667.130127 156.011322 657.325012 157.107025 651 C 158.202728 644.674988 160.188461 635.224976 161.51976 630 C 162.851059 624.774963 165.267914 616.450012 166.890549 611.5 C 168.513168 606.549988 171.40683 598.450012 173.320908 593.5 C 175.234985 588.549988 178.57962 580.674988 180.753433 576 C 182.927231 571.325012 187.320831 562.774963 190.516983 557 C 193.713135 551.224976 199.341934 541.995483 203.025436 536.48999 C 206.708939 530.984497 212.521332 522.958191 215.941864 518.653809 C 219.362396 514.349426 221.887161 510.553833 221.552444 510.219116 C 221.217743 509.884399 217.447327 513.185669 213.173752 517.555298 C 208.900177 521.924866 201.967468 529.789551 197.767731 535.032349 C 193.567993 540.275085 186.698914 549.725098 182.503128 556.032288 C 178.307343 562.339539 171.538559 574.25 167.461395 582.5 C 163.384216 590.75 158.006821 603.282837 155.511627 610.350708 C 153.016418 617.41864 149.428955 629.343628 147.539474 636.850708 C 145.649994 644.357788 143.293152 656.125 142.302032 663 C 140.935028 672.482422 140.5 681.737183 140.5 701.336792 C 140.5 727.173584 140.5 727.173584 138.248688 722.336792 C 137.010452 719.676575 134.175369 711.937256 131.948471 705.138306 C 129.721588 698.339294 126.821136 687.539307 125.503036 681.138306 C 124.184937 674.737183 122.296097 662.974976 121.305618 655 C 120.055176 644.931763 119.504036 633.623047 119.50238 618 C 119.501068 605.625 120.086662 589.707031 120.803688 582.626709 C 121.520721 575.546387 123.001022 564.746399 124.093246 558.626709 C 125.185478 552.507019 127.411697 542.213867 129.040405 535.753052 C 130.669113 529.292297 134.024246 517.859802 136.496262 510.347656 C 138.968262 502.835449 143.319336 491.246582 146.165314 484.594543 C 149.011276 477.942566 153.541199 468.065186 156.231796 462.644836 C 158.922394 457.224487 164.651733 446.864197 168.963669 439.621948 C 173.275604 432.379639 180.514633 421.28949 185.050415 414.977112 C 189.586182 408.664673 196.664185 399.450012 200.779327 394.5 C 204.894455 389.549988 213.715073 379.940796 220.380692 373.146179 C 227.04631 366.351563 236.324997 357.40918 241 353.274292 C 245.675003 349.139343 254.449997 342.050781 260.5 337.521912 C 266.550018 332.993042 276 326.46283 281.5 323.010315 C 287 319.5578 296.899994 313.898865 303.5 310.434875 C 310.100006 306.970886 320.344635 302.013062 326.265869 299.417542 C 332.187103 296.822021 336.855164 294.521851 336.639343 294.30603 C 336.423523 294.09021 330.725586 294.665405 323.977234 295.584229 C 315.302887 296.76532 308.014252 297.096741 299.10376 296.71521 C 292.171692 296.418396 283.912506 295.593201 280.75 294.881348 C 277.587494 294.169556 275 293.287292 275 292.920776 C 275 292.554321 277.137512 292.011536 279.75 291.7146 C 282.362518 291.417725 288.550018 290.024597 293.5 288.618835 C 298.450012 287.213074 306.325012 284.547791 311 282.695984 C 315.675018 280.844177 324.899994 276.558289 331.5 273.171753 C 338.100006 269.785217 348 264.528992 353.5 261.491333 C 363.5 255.968323 363.5 255.968323 356.5 256.734131 C 352.649994 257.155396 342.75 257.491394 334.5 257.480896 C 324.958038 257.468811 317.865662 256.976257 315.008423 256.127319 C 310.516815 254.792786 310.516815 254.792786 319.508423 252.512817 C 324.453796 251.25885 332.100006 248.826782 336.5 247.108215 C 340.899994 245.389709 348.550018 241.823303 353.5 239.182983 C 358.450012 236.542664 370.708527 229.042358 380.74118 222.515747 C 390.773834 215.989075 398.860352 210.526978 398.711182 210.377869 C 398.562012 210.228699 394.628479 211.629211 389.969971 213.490112 C 385.311493 215.351013 377.899994 217.827759 373.5 218.99408 C 369.100006 220.160339 362.125 221.358521 358 221.656616 L 350.5 222.198608 Z M 538.712524 233.929382 C 540.47937 233.968201 544.340088 233.096375 547.29187 231.992004 C 550.243652 230.887573 554.564209 228.352966 556.893127 226.359497 C 559.222046 224.366028 561.834839 221.655579 562.699219 220.336304 C 563.56366 219.017029 564.0448 217.711487 563.768494 217.43512 C 563.492126 217.158752 560.843689 218.899658 557.882996 221.303711 C 554.922363 223.707825 550.700012 226.659546 548.5 227.863159 C 546.299988 229.066772 542.475037 230.908203 540 231.955139 C 535.521057 233.849792 535.515076 233.85907 538.712524 233.929382 Z M 585 227.007446 C 588.025024 225.296631 600.397827 218.857605 612.495178 212.698425 C 624.592529 206.539307 639.151672 199.341003 644.848877 196.702271 C 650.546021 194.063538 658.858643 190.927307 663.321289 189.73291 C 669.468933 188.087524 674.350891 187.553833 683.46759 187.53064 C 690.085388 187.513794 698.424988 187.804321 702 188.17627 C 708.465515 188.848938 708.47876 188.845154 704.5 187.463196 C 702.299988 186.699097 696 185.130249 690.5 183.976929 C 684.779236 182.777283 674.509094 181.624023 666.5 181.281921 C 658.157593 180.925598 647.852722 181.166382 641 181.877808 C 634.674988 182.534424 628.150024 183.344238 626.5 183.677368 C 623.882324 184.205872 623.754883 184.374268 625.5 184.998901 C 627.054504 185.555298 626.38623 185.958191 622.5 186.807678 C 619.75 187.408813 615.700012 188.589111 613.5 189.430664 C 609.5 190.960693 609.5 190.960693 614 190.419861 C 616.474976 190.122437 623.652527 189.890625 629.950073 189.904724 C 636.24762 189.918884 642.06012 190.058594 642.86676 190.21521 C 643.673401 190.371826 639.645874 192.943909 633.916687 195.930908 C 628.1875 198.917969 619.224976 203.814209 614 206.811523 C 608.775024 209.808838 600.450012 214.902893 595.5 218.131653 C 590.549988 221.360413 584.924988 225.378174 583 227.060059 C 579.5 230.117981 579.5 230.117981 585 227.007446 Z M 534 224.389832 C 536.475037 224.070862 540.154419 223.241699 542.176392 222.547241 C 544.198425 221.852844 547.75061 219.781555 550.07019 217.944458 C 552.459167 216.052307 555.135498 212.687317 556.243347 210.1828 C 557.734497 206.81189 557.953979 205.255127 557.167297 203.630676 C 556.276611 201.791565 556.126099 202.069458 556.067688 205.661133 C 556.012024 209.083862 555.42334 210.308472 552.75 212.562622 C 550.962524 214.069885 548.051941 215.909912 546.282104 216.65155 C 544.512329 217.393188 541.002441 218 538.482483 218 C 535.962524 218 532.685547 217.367737 531.200378 216.595032 C 529.715149 215.822266 527.527771 214.134766 526.339417 212.845032 C 525.151123 211.555237 523.668457 208.577087 523.044678 206.226929 C 522.420898 203.876709 522.229492 201.437744 522.619324 200.807007 C 523.103149 200.02417 522.720581 199.875793 521.414063 200.3396 C 520.361328 200.713318 517.101318 203.602295 514.169617 206.759583 C 511.237854 209.916809 508.025665 212.922546 507.031403 213.438965 C 505.512939 214.227722 506.28598 214.925842 511.861816 217.801453 C 515.512817 219.684326 520.975037 222.067505 524 223.097412 C 527.768921 224.380493 530.916382 224.787292 534 224.389832 Z M 644.41333 221.592834 C 646.402893 220.757202 652.280823 218.294189 657.475403 216.119385 C 662.669983 213.94458 670.088074 211.165405 673.960083 209.943359 C 677.832031 208.721375 681 207.27533 681 206.729919 C 681 206.14917 679.50238 205.981323 677.385315 206.32489 C 675.397278 206.647522 669.65979 208.296265 664.635315 209.98877 C 659.610901 211.681335 652.375488 214.738708 648.55658 216.78302 C 644.737671 218.827393 641.42926 221.087708 641.204529 221.80603 C 640.886902 222.82135 641.601135 222.773926 644.41333 221.592834 Z M 473.5 211.519165 C 474.600006 211.192871 478.846527 209.349854 482.936737 207.423523 C 487.026917 205.497253 493.698761 201.655151 497.763031 198.885437 C 501.827271 196.115723 508.380768 192.078613 512.326294 189.914001 C 516.271851 187.749451 522.572876 185.028687 526.328613 183.86792 C 531.705139 182.206238 534.894836 181.853821 541.328613 182.210571 C 548.042847 182.582825 551.267944 183.40741 559.414063 186.834473 C 564.86676 189.128418 569.467041 190.866333 569.636841 190.696472 C 569.806702 190.526672 567.370361 188.624268 564.222839 186.468872 C 561.075256 184.313538 556.164795 181.346985 553.310608 179.876648 C 550.456421 178.406311 544.897278 176.627136 540.95697 175.922974 C 535.190002 174.892334 532.594055 174.886658 527.646362 175.893677 C 524.265869 176.581726 518.241577 178.702087 514.259094 180.60553 C 510.27655 182.509033 503.976563 186.364502 500.259064 189.173218 C 496.541595 191.981934 489.667664 197.479492 484.983704 201.390015 C 480.299744 205.300476 475.349731 209.312805 473.983704 210.306213 C 471.985535 211.759338 471.890961 211.99646 473.5 211.519165 Z M 540 204 C 541.429993 204 543.140015 203.460022 543.799988 202.799988 C 544.460022 202.140015 545 200.655029 545 199.5 C 545 198.344971 544.460022 196.859985 543.799988 196.200012 C 543.140015 195.539978 541.429993 195 540 195 C 538.570007 195 536.859985 195.539978 536.200012 196.200012 C 535.540039 196.859985 535 198.344971 535 199.5 C 535 200.655029 535.540039 202.140015 536.200012 202.799988 C 536.859985 203.460022 538.570007 204 540 204 Z M 584 179.924744 C 584.825012 179.95575 583.700012 178.906433 581.5 177.593018 C 579.299988 176.279602 574.799988 173.844788 571.5 172.182312 C 568.200012 170.519836 562.575012 168.178833 559 166.97998 C 555.424988 165.781189 549.575012 164.17804 546 163.417542 C 542.424988 162.656982 535.591919 162.026917 530.815369 162.017334 C 526.038818 162.007813 519.063843 162.646484 515.315369 163.436584 C 511.566925 164.226685 507.375 165.358459 506 165.951599 C 503.714874 166.937317 503.800812 166.985657 507 166.513794 C 508.924988 166.229858 516.545837 165.706116 523.935242 165.349915 C 534.686523 164.831604 538.746582 165.032532 544.258972 166.355469 C 548.047607 167.264771 555.951782 170.065613 561.82373 172.579529 C 567.695679 175.093506 574.75 177.761902 577.5 178.509399 C 580.25 179.256836 583.174988 179.893738 584 179.924744 Z"/>
            <path id="path1" fill="#08736f" fill-rule="evenodd" stroke="none" d="M 606.5 763.866333 C 600.920227 752.366089 599.799683 751.152344 595.5 749.0177 C 591.857666 747.209473 589.006653 746.564636 585 746.643005 C 581.975037 746.702148 577.348938 747.61499 574.719849 748.671448 C 572.090698 749.727966 567.233521 752.562988 563.926086 754.971558 C 560.618591 757.380127 555.284058 762.450256 552.071533 766.238525 C 548.859009 770.026794 543.758667 776.585388 540.737427 780.81311 C 537.716187 785.040894 533.141968 792.146362 530.57251 796.603149 C 528.003052 801.059814 524.140869 808.78833 521.989929 813.777466 C 519.838989 818.766724 516.84906 827.045288 515.345642 832.174377 C 513.27478 839.239258 512.598511 843.73877 512.556091 850.735229 C 512.50293 859.487915 512.395508 859.939758 510.5 859.38147 C 509.399994 859.057434 506.631348 857.720764 504.347412 856.411133 C 502.063507 855.10144 497.718933 851.293945 494.69281 847.949951 C 491.666687 844.605957 487.549072 838.503174 485.542511 834.388245 C 483.53598 830.273315 481.004578 823.440063 479.917175 819.203247 C 478.829773 814.966431 477.485901 807.102905 476.930786 801.728638 C 476.245697 795.096069 476.25296 788.189819 476.9534 780.228638 C 477.520966 773.777893 478.672943 764.596252 479.513336 759.825073 C 480.35376 755.053833 483.094757 742.903809 485.604462 732.825073 C 489.195007 718.405762 490.06662 713.310181 489.693848 708.917725 C 489.433258 705.847473 487.17157 697.067566 484.667877 689.406799 C 482.060638 681.429321 479.629608 671.637451 478.978058 666.489136 C 478.308044 661.195007 478.122681 653.623657 478.527039 648.069824 C 478.904694 642.883179 480.258362 634.333191 481.535187 629.069824 C 482.812012 623.806396 485.266937 615.680908 486.99054 611.013123 C 488.714172 606.345276 492.809967 597.345276 496.092346 591.013123 C 499.374725 584.680908 504.953796 575.450012 508.490326 570.5 C 512.026855 565.549988 518.650818 557.475098 523.210205 552.555725 C 527.769592 547.636353 535.775024 540.066528 541 535.733948 C 546.225037 531.401367 554.775024 525.012695 560 521.536987 C 565.225037 518.061218 575.073853 512.415039 581.886353 508.989807 C 588.698792 505.564636 598.9104 501.014587 604.578735 498.87854 C 610.24707 496.742493 620.052612 493.662415 626.368835 492.033813 C 632.684998 490.405273 643.398438 488.316223 650.176392 487.391602 C 656.954407 486.466919 667.900024 485.663025 674.5 485.605164 C 681.099976 485.547302 691.900024 486.104065 698.5 486.842407 C 705.099976 487.58075 711.16864 488.558044 711.98584 489.01416 C 713.147461 489.662476 712.929199 489.961121 710.98584 490.382385 C 709.618652 490.678772 705.918884 491.419556 702.764221 492.028564 C 699.609558 492.637573 693.558716 494.269165 689.317932 495.654236 C 685.077148 497.039307 678.433289 499.777771 674.553711 501.739685 C 670.674194 503.701599 667.96759 505.468689 668.539063 505.666443 C 669.110596 505.864258 673.04425 505.139587 677.280579 504.056091 C 681.516907 502.972656 689.82428 501.559753 695.741455 500.916382 C 701.973389 500.238708 711.22583 500.011658 717.731995 500.376648 C 723.909546 500.723206 733.56073 501.897827 739.179077 502.986938 C 744.797363 504.07605 753.692993 506.310181 758.947083 507.951721 C 764.201172 509.593201 773.526489 513.417603 779.669983 516.450378 C 785.813416 519.483093 795.71344 525.214722 801.669983 529.187256 C 808.677307 533.860657 816.117981 540.045105 822.75 546.708374 C 828.387512 552.372437 833 557.435913 833 557.960632 C 833 558.485352 830.412476 557.379211 827.25 555.502563 C 824.087524 553.625977 817.900024 550.454712 813.5 548.455383 C 809.099976 546.456055 802.349976 543.773804 798.5 542.494812 C 794.650024 541.21582 787.224976 539.267273 782 538.164795 C 776.775024 537.062256 768.900024 535.913452 764.5 535.611816 C 756.5 535.063477 756.5 535.063477 761.5 536.578674 C 764.25 537.412048 770.51825 539.458801 775.429443 541.127014 C 780.340637 542.795288 788.215637 546.102051 792.929443 548.475403 C 797.64325 550.848816 805.549988 555.474792 810.5 558.755432 C 815.450012 562.036133 823.059143 567.879883 827.40918 571.741577 C 831.759216 575.603333 838.653442 582.528748 842.729736 587.13147 C 846.805969 591.734192 853.644958 600.711487 857.927551 607.081116 C 862.210144 613.450684 868.441406 624.250671 871.774841 631.081116 C 875.108276 637.911499 879.483337 647.963318 881.497253 653.418457 C 883.511169 658.873535 886.467102 668.323303 888.066101 674.417847 C 889.6651 680.512451 891.862549 690.899109 892.949402 697.49939 C 894.036255 704.099731 895.4422 715.799988 896.07373 723.5 C 896.705261 731.200012 896.985352 742.450012 896.696167 748.5 C 896.361084 755.51062 896.485901 758.411987 897.040405 756.5 C 897.51886 754.849976 898.718018 747.424988 899.7052 740 C 900.692322 732.575012 901.5 720.424988 901.5 713 C 901.5 705.575012 900.90863 694.775024 900.185852 689 C 899.463013 683.224976 898.04425 674.674988 897.032898 670 C 896.021606 665.325012 893.354858 655.875 891.106812 649 C 888.858765 642.125 885.059204 632.167786 882.663269 626.872803 C 880.267395 621.57782 875.512512 612.554199 872.096924 606.820313 C 868.681335 601.086426 863.77478 593.630615 861.19342 590.25177 C 858.612 586.872986 853.581177 580.596619 850.013672 576.30426 C 843.977478 569.041626 843.804016 568.701904 847.513672 571.408936 C 849.706177 573.00885 852.584534 575.25885 853.910156 576.408936 C 856.16095 578.361816 856.274536 578.373535 855.628845 576.586731 C 855.248596 575.534424 853.375 571.709473 851.465271 568.086731 C 849.555542 564.46405 844.957092 557.455688 841.246521 552.512695 C 837.53595 547.569641 830.674988 539.742065 826 535.117981 C 821.325012 530.494019 812.775024 523.355469 807 519.254578 C 801.224976 515.153687 791.099976 509.166321 784.5 505.949341 C 777.900024 502.732361 767.775024 498.47876 762.000061 496.496826 C 756.225037 494.514893 747.59491 492.023499 742.82196 490.960327 C 738.049072 489.897217 730.938965 488.729492 727.021851 488.365417 C 721.694458 487.8703 720.028259 487.368774 720.409546 486.375122 C 720.689941 485.64447 722.93689 481.548706 725.402832 477.273376 C 727.868713 472.997986 731.665894 465 733.841003 459.5 C 736.016052 454 738.854126 444.789978 740.147827 439.033325 C 742.100525 430.344299 742.5 425.758484 742.5 412.033325 C 742.5 399.501648 742.05249 393.563721 740.651123 387.5 C 739.634216 383.099976 737.341248 375.861328 735.555664 371.414001 C 733.77002 366.966675 730.255615 360.153687 727.74585 356.273987 C 725.236084 352.394226 720.017639 345.628174 716.149292 341.238281 C 712.280945 336.848328 704.927368 329.742249 699.807983 325.446899 C 694.688599 321.15155 685.775024 314.519653 680 310.709412 C 674.224976 306.89917 665.450012 301.72998 660.5 299.22229 C 655.549988 296.714661 647.674988 292.905518 643 290.757629 L 634.5 286.852295 L 642.66626 287.442566 C 647.157715 287.767212 655.7901 288.925537 661.849304 290.016541 C 667.908447 291.107605 677.958679 293.319641 684.182983 294.93219 C 690.407349 296.544739 700.175842 299.49823 705.890808 301.495483 C 711.605713 303.492798 720.644958 307.047241 725.977966 309.394287 C 731.310974 311.741333 741.035095 316.476563 747.587158 319.916931 C 754.139221 323.357361 766.474976 330.8125 775 336.484009 C 783.525024 342.155518 795.450012 350.744812 801.5 355.571472 C 807.549988 360.398071 820.385803 372.25647 830.023987 381.923523 C 839.66217 391.590576 851.717834 404.900024 856.814331 411.5 C 861.910828 418.099976 869.425415 428.523132 873.513367 434.662476 C 877.601379 440.801819 883.936707 451.151855 887.591919 457.662476 C 891.247131 464.173096 896.718872 474.900024 899.751343 481.5 C 902.783813 488.099976 907.177673 498.450012 909.515442 504.5 C 911.85321 510.549988 915.152771 520 916.847778 525.5 C 918.542786 531 921.297058 540.900024 922.968445 547.5 C 924.639832 554.100037 926.715393 563.549988 927.58075 568.5 C 928.446106 573.450012 929.803467 582.450012 930.597107 588.5 C 931.390747 594.549988 932.329163 609.400024 932.682434 621.5 C 933.088623 635.409241 932.886475 649.200317 932.132874 659 C 931.477295 667.525024 929.805603 681.924988 928.41803 691 C 927.030396 700.075012 923.920593 715.652344 921.507263 725.616394 C 919.093933 735.580444 914.449036 751.780396 911.185303 761.616394 C 907.921509 771.452393 902.451843 786.025024 899.030396 794 C 895.609009 801.974976 890.173157 813.675049 886.950745 820 C 883.728333 826.325012 877.986084 836.725952 874.190125 843.113281 C 870.394165 849.500549 864.18988 859.175537 860.402832 864.613281 C 856.615723 870.050964 849.038086 880.125 843.563599 887 C 838.089111 893.875 826.835266 906.418213 818.554993 914.873718 C 810.27478 923.329285 798.549988 934.526001 792.5 939.75531 C 786.450012 944.984619 776.001038 953.366455 769.28009 958.381592 C 762.559143 963.396729 750.409119 971.680542 742.28009 976.790161 C 734.151062 981.89978 717.825012 990.924011 706 996.844055 C 694.174988 1002.764099 677.468506 1010.372375 668.874451 1013.751282 C 660.280396 1017.130188 647.395386 1021.692017 640.24115 1023.888611 C 633.086914 1026.085205 621.650146 1029.232422 614.826111 1030.882324 C 608.002136 1032.532227 596.003113 1035.0625 588.16156 1036.505127 C 580.320007 1037.947754 568.863281 1039.7771 562.702148 1040.570557 C 556.104553 1041.420044 538.963257 1042.194946 521 1042.455566 C 499.466919 1042.768066 486.215973 1042.489014 475.928375 1041.506226 C 467.913971 1040.740601 455.8526 1039.19043 449.125336 1038.061279 C 442.398041 1036.932251 430.577759 1034.625 422.858002 1032.934082 C 415.138245 1031.243164 402.764954 1028.088501 395.361816 1025.923706 C 387.958649 1023.758911 376.411194 1019.908325 369.700775 1017.366882 C 362.990356 1014.825439 352.550018 1010.442383 346.5 1007.626709 C 340.450012 1004.811096 331.00415 1000.105713 325.509247 997.17041 C 320.014313 994.235107 312.452515 989.795227 308.705261 987.304077 C 304.957977 984.812866 302.028839 982.644531 302.196014 982.485474 C 302.36322 982.326477 307.675018 983.285522 314 984.616638 C 320.325012 985.947815 331.800018 987.694763 339.5 988.498718 C 347.200012 989.302673 360.024994 989.964844 368 989.970276 C 375.975006 989.975647 388.125 989.346619 395 988.572449 C 401.875 987.79834 412.041962 986.233643 417.593231 985.095459 C 423.144501 983.957275 431.684875 981.86731 436.571838 980.451172 C 441.458801 979.034973 449.981445 976.171387 455.511078 974.087646 C 461.04071 972.003845 471.041718 967.506714 477.735535 964.094055 C 484.429352 960.681335 494.188965 955.025635 499.423584 951.525818 C 504.658173 948.026001 513.18219 941.751404 518.365784 937.582153 C 523.549377 933.412964 531.223999 926.352051 535.42041 921.891235 C 539.616882 917.430359 546.987488 908.54248 551.799622 902.140259 C 556.611755 895.738159 563.800232 885.053711 567.774048 878.397156 C 571.747864 871.740601 577.420349 861.165588 580.379578 854.897156 C 583.338806 848.628723 587.783875 838.325012 590.257568 832 C 592.731201 825.675049 597.762268 811.724976 601.437683 801 C 605.276428 789.798584 611.237915 775.116455 615.446045 766.5 C 619.47522 758.25 625.036926 748.125 627.805359 744 C 630.573853 739.875 636.254211 733.026489 640.428467 728.781128 C 644.602722 724.535767 650.60144 719.310669 653.758972 717.1698 C 656.916565 715.02887 662.016846 712.128296 665.093018 710.723999 C 668.169189 709.319702 673.119202 707.446167 676.093018 706.560669 C 679.066833 705.675171 685.325012 704.692078 690 704.375977 C 695.902344 703.976929 700.792053 704.284302 706 705.381714 C 710.125 706.250854 717.325012 708.83374 722 711.121338 C 728.864319 714.480225 732.168396 716.959839 739.170227 724.006775 C 746.803284 731.689087 748.501221 734.094604 753.364868 744.116455 C 757.092651 751.797729 759.801758 759.240173 761.694702 767 C 764.32489 777.782043 764.5 779.842285 764.5 800 C 764.5 819.495605 764.24054 822.805176 761.717102 835.5 C 760.186523 843.200012 756.714233 856.151001 754.000854 864.280029 C 751.287476 872.408997 746.334717 884.772766 742.99469 891.755005 C 739.654724 898.737305 734.404297 908.511292 731.327148 913.475037 C 728.25 918.438782 722.53241 926.775024 718.621521 932 C 714.710571 937.224976 706.333313 946.843201 700.005371 953.373779 C 693.677429 959.904297 684 968.873169 678.5 973.304504 C 673 977.73584 664.115356 984.236938 658.756348 987.751282 C 653.397339 991.265686 642.597351 997.516418 634.756348 1001.641846 C 626.915344 1005.767212 621.842773 1008.850464 623.483887 1008.49353 C 625.125 1008.136536 630.038818 1006.467346 634.403503 1004.78418 C 638.768127 1003.100952 647.845703 998.896851 654.575806 995.44165 C 661.305969 991.986511 671.467102 986.147949 677.156189 982.467163 C 682.845276 978.786316 690.546814 973.323486 694.270691 970.327576 C 697.994568 967.331604 704.140259 962.094788 707.927856 958.690186 C 711.715393 955.285583 718.180115 948.605408 722.293762 943.845337 C 726.407471 939.085327 732.931519 930.760315 736.791626 925.345337 C 740.651733 919.93042 746.525757 910.608887 749.845032 904.630859 C 753.164307 898.652832 758.159485 888.217896 760.945435 881.442017 C 763.731384 874.666199 767.585999 863.649719 769.51123 856.960938 C 771.436462 850.272095 773.943848 839.782104 775.083191 833.64978 C 776.302185 827.088989 777.393677 815.914795 777.735291 806.5 C 778.100464 796.435486 777.868408 786.890198 777.10968 780.769165 C 776.446289 775.417236 774.798157 766.7854 773.447144 761.587402 C 772.09613 756.389282 769.496765 748.593994 767.670776 744.264404 C 765.844788 739.934875 762.317993 733.266663 759.833374 729.446289 C 757.348816 725.625854 753.161316 720.118713 750.527832 717.208252 C 747.894287 714.297852 743.172668 709.941284 740.035339 707.527161 C 736.897949 705.113037 731.669006 701.79541 728.415527 700.154663 C 725.161987 698.513977 719.723694 696.269287 716.330444 695.166443 C 712.937256 694.063599 706.640381 692.627625 702.337463 691.975342 C 697.872131 691.298462 691.621277 691.074463 687.774719 691.453552 C 684.068054 691.818787 677.845459 693.001587 673.946655 694.082031 C 670.047913 695.162354 663.852478 697.562012 660.179016 699.414429 C 656.505554 701.266907 650.799988 704.776001 647.5 707.212341 C 644.200012 709.648682 638.392822 714.985107 634.595215 719.071045 C 630.797546 723.156982 625.012085 730.549988 621.738586 735.5 C 618.465027 740.450012 613.697205 748.857422 611.143372 754.183167 L 606.5 763.866333 Z M 546.802979 937.73053 C 549.169678 936.382507 554.709717 932.440979 559.114319 928.971619 C 563.51886 925.502258 571.032532 918.51532 575.81134 913.445068 C 580.82843 908.121948 587.223938 899.84729 590.946106 893.86322 C 594.491455 888.163452 599.368835 878.852417 601.784729 873.171936 C 604.200623 867.491516 605.942627 862.609253 605.655823 862.32251 C 605.36908 862.035767 603.954163 864.130371 602.511536 866.977234 C 601.06897 869.824097 597.831604 875.362427 595.317505 879.28479 C 592.803345 883.207031 587.625366 890.586792 583.810791 895.684204 C 579.996216 900.781555 572.63739 909.638794 567.457825 915.366882 C 562.27832 921.094971 554.543884 929.021606 550.270264 932.981567 C 543.475586 939.277588 543.040222 939.873779 546.802979 937.73053 Z M 865.783691 834.5 C 867.346008 831.200012 870.269958 824.421631 872.281372 819.43689 C 874.292786 814.452148 877.256958 805.227112 878.868347 798.93689 C 880.479797 792.646606 882.535583 783.224976 883.436707 778 C 884.337891 772.775024 885.352234 763.207031 885.690857 756.737915 C 886.065125 749.588623 885.823792 740.960815 885.075623 734.737915 C 884.398682 729.107056 883.000793 720.900024 881.96936 716.5 C 880.937866 712.099976 879.01123 705.349976 877.687927 701.5 C 876.364624 697.650024 873.45752 690.900024 871.227783 686.5 C 868.997986 682.099976 865.06958 675.349976 862.497925 671.5 C 859.92627 667.650024 858.055359 665.174988 858.340271 666 C 858.625244 666.825012 860.424866 671.152344 862.339417 675.616333 C 864.253967 680.080322 867.163513 687.955322 868.804993 693.116333 C 870.446533 698.277344 873.074402 709.025024 874.644775 717 C 877.292725 730.447388 877.5 733.205994 877.5 755 C 877.5 772.661865 877.05426 781.356934 875.705811 790 C 874.718994 796.325012 872.756287 806.217651 871.344299 811.983765 C 869.932312 817.749756 867.702759 825.624756 866.389832 829.483765 C 865.076843 833.342651 863.764221 837.400024 863.4729 838.5 C 863.18158 839.599976 864.221436 837.800049 865.783691 834.5 Z M 497.090485 813 C 497.479218 808.325012 498.938263 800 500.332794 794.5 C 501.727295 789 504.519623 780.233521 506.537964 775.018921 C 508.556274 769.80426 511.706329 762.561768 513.538086 758.924316 C 515.369873 755.286987 518.291992 749.878479 520.031799 746.905518 C 521.771606 743.932495 524.089355 739.924988 525.182434 738 C 527.169861 734.5 527.169861 734.5 523.550537 738.5 C 521.559937 740.700012 517.787048 745.200012 515.166382 748.5 C 512.545715 751.799988 508.964661 756.601013 507.208527 759.168945 C 505.452362 761.736816 502.917877 766.911804 501.576355 770.668945 C 500.234802 774.426025 498.438507 780.237183 497.584595 783.582642 C 496.730652 786.928101 495.737579 794.157715 495.377747 799.648438 C 495.017914 805.139099 495.097046 812.30188 495.553619 815.565796 C 496.383698 821.5 496.383698 821.5 497.090485 813 Z M 501.5 758.5 C 502.860992 743.05304 504.4505 735.409241 506.587006 728.562256 C 508.642822 721.973877 509.985657 715.611511 509.963928 712.562256 C 509.927856 707.5 509.927856 707.5 508.117493 712.5 C 507.121796 715.25 505.144348 719.785767 503.723145 722.579468 C 502.30191 725.373169 500.278961 730.206848 499.227661 733.320923 C 498.176361 736.434998 497.02005 738.686707 496.658112 738.324768 C 496.296143 737.962769 496 739.065918 496 740.776123 C 496 742.486328 497.237488 747.173828 498.75 751.192749 L 501.5 758.5 Z M 560.81073 709.099365 C 561.739807 708.601074 564.194214 706.546753 566.264893 704.534119 C 568.335571 702.521545 571.186096 698.592896 572.599426 695.803833 C 574.012756 693.014771 575.412476 689.105408 575.709961 687.116394 C 576.188599 683.916016 576.080444 683.672546 574.769714 685 C 573.955139 685.825012 571.901428 688.974976 570.205933 692 C 568.510376 695.025024 565.068176 699.901855 562.55658 702.837463 C 560.045044 705.773071 558.244629 708.586792 558.555725 709.09021 C 558.895203 709.639404 559.796997 709.643066 560.81073 709.099365 Z M 532.212524 688.968323 C 536.538208 688.98877 540.81958 688.291138 544.253296 687.00647 C 547.241577 685.888367 551.188843 683.363159 553.241455 681.25647 C 555.254395 679.19043 557.794739 675.474976 558.886719 673 C 559.978638 670.525024 561.609009 664 562.509766 658.5 C 563.410461 653 565.018311 645.799988 566.082764 642.5 C 567.147217 639.200012 569.362915 634.25 571.006592 631.5 C 572.650269 628.75 574.783691 625.377869 575.747559 624.006348 C 576.911194 622.350464 575.736877 622.990356 572.252441 625.910828 C 569.366272 628.329834 565.228027 632.612122 563.056396 635.426941 C 560.884705 638.241821 557.79425 643.459839 556.18866 647.022461 C 554.583069 650.585144 551.762451 657.099976 549.920593 661.5 C 547.149475 668.119995 545.271851 670.808472 539.035889 677.085083 C 534.891174 681.256897 530.150024 685.630127 528.5 686.803406 C 525.5 688.936646 525.5 688.936646 532.212524 688.968323 Z M 754.401917 463.5 C 756.842957 460.75 760.273193 456.150452 762.024658 453.278809 C 763.776184 450.407104 766.279968 445.406677 767.588684 442.166687 C 768.897339 438.926697 770.444336 432.951233 771.026428 428.887878 C 771.608521 424.824524 771.799683 418.575012 771.451233 415 C 771.102783 411.424988 770.44928 407.150024 769.999023 405.5 C 769.352173 403.129639 769.158691 403.969177 769.077026 409.5 C 769.020203 413.349976 768.127319 420.549988 767.092896 425.5 C 766.058411 430.450012 763.833984 438.24469 762.14978 442.821533 C 760.465515 447.398315 757.034607 455.04834 754.525574 459.821533 C 749.963623 468.5 749.963623 468.5 754.401917 463.5 Z"/>
        </g>
        <g id="Logotype">
            <text id="Huginum" transform="matrix(1 -0.000211 0.000211 1 -0.100028 0.362315)" xml:space="preserve" x="994.910354" y="586" font-family="DM Serif Display" font-size="356.093652" fill="#0f8a84">Huginum</text>
            <text id="Cortex" transform="matrix(1 0.000541 -0.000541 1 0.412546 -1.058248)" xml:space="preserve"><tspan x="1702.874244" y="820" font-family="DM Serif Display" font-size="176.537915" font-style="italic" fill="#b7b7b7" letter-spacing="-5.296137" xml:space="preserve">C</tspan><tspan font-family="DM Serif Display" font-size="176.537915" font-style="italic" fill="#b7b7b7" xml:space="preserve">ortex</tspan></text>
        </g>
    </g>
</svg>
