<?xml version="1.0" encoding="UTF-8"?>
<!-- Generated by Pixelmator Pro 3.8 -->
<svg width="902" height="902" viewBox="0 0 902 902" xmlns="http://www.w3.org/2000/svg">
    <g id="Logo-light-copy">
        <g id="Logomark">
            <path id="Shape" fill="#0c1616" fill-rule="evenodd" stroke="none" d="M 274.5 80.198608 C 284.182526 74.337585 290.032532 70.341919 293.746796 67.537964 C 297.46106 64.73407 305.674988 58.267639 312 53.168152 C 318.325012 48.068726 328.225006 40.727783 334 36.855042 C 339.774994 32.9823 351.024994 26.58606 359 22.641174 C 366.975006 18.696289 378 14.024109 383.5 12.258606 C 389 10.493103 397.238342 8.164856 401.807434 7.084717 C 406.376526 6.004578 415.15155 4.570435 421.307434 3.897766 C 428.497498 3.112061 438.221649 2.905579 448.5 3.320313 C 457.299988 3.675354 468.325012 4.668518 473 5.527283 C 477.674988 6.386108 486.045532 8.608887 491.601135 10.466797 C 497.156769 12.324768 506.156769 16.091064 511.601135 18.836365 C 517.045532 21.581726 524.650024 25.104126 528.5 26.66394 C 535.5 29.5 535.5 29.5 571.5 29.5 C 602.095398 29.5 608.926208 29.772095 617 31.312256 C 622.224976 32.309021 630.549988 34.468506 635.5 36.111206 C 640.450012 37.753906 647.769043 40.9599 651.764465 43.235596 C 655.759949 45.511292 661.498596 49.784424 664.517029 52.731445 C 667.535461 55.678467 670.883423 59.811401 671.957031 61.915771 C 673.908997 65.741882 673.908997 65.741882 663.704468 66.239685 C 658.008911 66.517578 648.197754 67.943176 641.5 69.466187 C 634.900024 70.96698 621.503296 74.839478 611.729492 78.071716 C 601.95575 81.304016 588.45575 86.604492 581.729492 89.850525 C 575.003296 93.096619 565.224976 98.588074 560 102.053833 C 554.775024 105.519531 547.116455 111.762756 542.981018 115.927612 C 537.702576 121.24353 534.220703 125.892029 531.296265 131.527344 C 529.005066 135.942444 526.227539 142.812866 525.124023 146.795044 C 524.020508 150.777222 522.848022 157.06488 522.518494 160.7677 C 522.173462 164.64502 522.48877 171.210632 523.262085 176.25 C 524.000549 181.0625 524.356201 184.986084 524.052429 184.969055 C 523.748596 184.952087 522.071716 183.039551 520.325989 180.719055 C 518.580261 178.39856 515.743164 173.799988 514.021362 170.5 C 511.669434 165.992432 511.012177 165.246216 511.378967 167.5 C 511.647522 169.150024 513.045532 175.900024 514.485657 182.5 C 515.925781 189.099976 517.558899 198.16394 518.114807 202.642029 C 518.670715 207.120178 518.984802 212.745178 518.812805 215.142029 C 518.5 219.5 518.5 219.5 515.189819 213 C 513.369202 209.424988 510.014374 203.626953 507.73465 200.115417 C 505.454956 196.603882 503.450653 194.148071 503.28064 194.65802 C 503.110657 195.16803 504.09021 198.338257 505.457458 201.703003 C 506.824677 205.067749 508.893219 211.123596 510.054199 215.1604 C 511.560364 220.3974 512.330078 226.65387 512.741028 237 C 513.080078 245.535461 512.852905 255.214294 512.188782 260.529541 C 511.568268 265.495789 509.891449 273.145813 508.462494 277.529541 C 507.033539 281.913269 504.91333 287.525024 503.750946 290 C 501.637482 294.5 501.637482 294.5 500.85788 282.5 C 500.358734 274.817078 499.012543 266.284363 497.115906 258.781982 C 495.486603 252.337036 492.074463 242.212036 489.533386 236.281982 C 486.99231 230.351868 483.054413 222.240845 480.782532 218.257446 C 478.51062 214.273987 476.458893 211.207764 476.223114 211.443542 C 475.987335 211.679321 476.720764 214.713501 477.852936 218.186096 C 478.985138 221.658752 480.811218 228.099976 481.910919 232.5 C 483.01059 236.900024 484.60553 245.810547 485.45517 252.301208 C 486.30484 258.79187 487 269.610596 487 276.342773 C 487 283.074951 486.307861 293.860657 485.461945 300.310974 C 484.616028 306.761353 482.806702 315.967651 481.441223 320.76947 C 480.075745 325.571228 476.043854 335.349976 472.481476 342.5 C 468.919067 349.650024 464.616089 357.075012 462.919312 359 C 460.083099 362.217712 459.88266 362.29834 460.43454 360 C 460.764709 358.625 461.814484 353.036804 462.767426 347.581787 C 463.817108 341.572754 464.5 332.507568 464.5 324.581787 C 464.5 315.218567 463.935486 308.941711 462.514008 302.5 L 460.527985 293.5 L 459.812439 305.5 C 459.418884 312.099976 458.403076 321.886475 457.555115 327.247803 C 456.707184 332.60907 454.448669 341.834045 452.536224 347.747803 C 450.623779 353.661499 446.147675 364.392761 442.589325 371.595093 C 439.030975 378.797363 433.423798 388.697388 430.128967 393.595093 C 426.834137 398.492798 421.224518 406.100006 417.663177 410.5 C 414.101837 414.899994 407.208191 422.845154 402.343994 428.155884 C 397.479797 433.466583 388.125275 443.591583 381.556183 450.655884 C 374.987061 457.720154 366.066162 467.774994 361.731964 473 C 357.397766 478.225006 350.32605 487.696259 346.017059 494.047272 C 341.708069 500.398254 335.602081 510.298248 332.448181 516.047241 C 329.294281 521.796265 324.792603 531.060364 322.444458 536.634155 C 320.096283 542.207947 316.596558 551.657959 314.667267 557.634155 C 312.737976 563.610352 310.203644 573.450012 309.03537 579.5 C 307.867126 585.549988 306.637177 595.567017 306.302124 601.760132 C 305.935486 608.537476 306.184998 617.079956 306.928894 623.217834 C 307.608673 628.826538 309.254669 637.610046 310.5867 642.736755 C 311.918732 647.863464 314.560303 655.966309 316.456818 660.743164 C 318.353363 665.519958 319.811859 669.521484 319.697906 669.635437 C 319.583984 669.74939 316.342834 667.741211 312.495361 665.172852 C 308.647919 662.604431 301.179016 656.227356 295.897827 651.001526 C 290.616638 645.775696 284.398499 638.890259 282.079712 635.700439 C 279.760925 632.510742 276.120026 626.660767 273.988831 622.700439 C 271.857635 618.740234 268.740265 611.389526 267.06134 606.36554 C 265.336487 601.204163 263.436279 592.505066 262.692566 586.36554 C 261.376404 575.5 261.376404 575.5 260.606842 583.894897 C 260.183594 588.512146 260.139526 595.037109 260.508972 598.394897 C 260.878387 601.752686 261.889282 607.424988 262.755402 611 C 263.621521 614.575012 265.582764 620.60144 267.11377 624.392151 C 268.644745 628.182861 272.019348 634.794434 274.612885 639.084595 C 277.20639 643.374756 282.321869 650.400208 285.980621 654.696655 C 289.639343 658.993164 298.00296 666.996521 304.566437 672.481995 C 311.129883 677.967529 320.484009 686.290588 325.353333 690.977783 C 330.222656 695.665039 336.972656 702.948975 340.353333 707.164429 C 343.734009 711.379883 348.024994 717.354858 349.888885 720.4422 C 351.752777 723.529541 353.047852 726.285522 352.766785 726.566528 C 352.485748 726.847595 345.146454 723.679688 336.457275 719.526733 C 327.768097 715.37384 316.798065 709.843872 312.079376 707.237976 C 307.360718 704.63208 303.049988 702.361328 302.5 702.191772 C 301.950012 702.022339 304.469238 704.72229 308.098328 708.191772 C 311.727417 711.661316 319.385864 718.170471 325.117126 722.656616 C 330.848419 727.1427 340.704163 734.092957 347.018829 738.101563 C 353.333466 742.110229 363.922302 748.159058 370.54953 751.543518 C 377.176788 754.927917 387.526794 759.614746 393.54953 761.958618 C 399.572296 764.30249 410.410248 767.722168 417.633881 769.557861 C 424.857483 771.393616 434.195007 773.206116 438.383881 773.585693 C 442.572754 773.965271 446 774.650513 446 775.108521 C 446 775.566406 441.837494 779.590637 436.75 784.051147 C 431.662506 788.511719 422.549988 795.47052 416.5 799.515259 C 410.450012 803.559937 400.880463 809.194397 395.234375 812.036194 C 389.588287 814.878052 381.0383 818.747681 376.234375 820.635376 C 371.430481 822.523071 363.384247 825.190186 358.353882 826.562256 C 353.323517 827.934326 345.448517 829.718506 340.853882 830.5271 C 336.259247 831.335693 329.350006 831.960876 325.5 831.916382 C 320.042297 831.853271 316.703979 831.113098 310.348419 828.557068 C 305.865051 826.753967 297.765045 822.895447 292.348419 819.982544 C 286.931793 817.06958 278.578827 812.056274 273.786285 808.841736 C 268.993744 805.627258 261.118744 799.673401 256.286285 795.611023 C 251.453827 791.548645 244.274643 784.911743 240.33255 780.862427 C 236.390442 776.81311 230.356216 770.125 226.923157 766 C 223.490097 761.875 217.553635 753.775024 213.731003 748 C 209.908386 742.224976 204.646622 733.224976 202.038177 728 C 199.429749 722.775024 195.399857 713.844788 193.08287 708.155029 C 190.765884 702.465332 187.343521 691.748657 185.477631 684.340149 C 183.611725 676.931702 181.503448 666.286926 180.792542 660.68512 C 180.08165 655.083313 179.5 641.5 179.5 630.5 C 179.5 612.656433 179.799103 608.996948 182.274124 596.559631 C 183.799881 588.892456 186.925369 576.974487 189.219635 570.075256 C 191.513901 563.176025 196.873016 550.549194 201.128784 542.015625 C 205.384537 533.482056 212.004623 521.775024 215.840057 516 C 219.675507 510.225006 226.780014 500.549988 231.627884 494.5 C 236.475739 488.450012 248.330185 475.589752 257.9711 465.921692 C 267.612 456.253632 284.960144 439.764496 296.522552 429.279205 C 308.08493 418.793884 323.252197 404.324432 330.22757 397.124878 C 337.202942 389.925293 346.14856 379.864441 350.10675 374.767395 C 354.064972 369.670288 359.982056 361.450012 363.25589 356.5 C 366.529724 351.549988 370.904968 344.125 372.978668 340 C 375.052368 335.875 378.353027 328.205505 380.313477 322.956665 C 382.273895 317.707825 384.805359 308.862183 385.938934 303.299561 C 387.07254 297.737 387.996613 289.431519 387.992432 284.842896 C 387.988281 280.254333 387.514618 273.575012 386.939819 270 C 386.365021 266.424988 384.352112 258.87616 382.466675 253.224792 C 380.333221 246.829956 377.122009 239.961731 373.96344 235.037781 C 371.172089 230.68634 367.162598 225.347839 365.053436 223.1745 C 362.944305 221.00116 358.418671 217.321594 354.996521 214.99762 C 351.574371 212.673706 345.955902 209.494324 342.511078 207.932373 C 339.066254 206.370422 332.704498 204.160217 328.373871 203.020874 C 324.043243 201.881531 316.450012 200.439453 311.5 199.816223 C 306.209442 199.150085 296.523682 198.91626 288 199.24884 C 279.395447 199.584534 269.637482 200.637024 264 201.837402 C 258.774994 202.949951 251.125 204.792114 247 205.931091 C 242.875 207.070068 235.449997 209.513855 230.5 211.361694 C 225.550003 213.209595 216.811478 217.076355 211.08107 219.95459 C 205.350662 222.832886 197.179474 227.347778 192.922867 229.987854 C 188.66626 232.627869 180.754776 238.152222 175.341797 242.264221 C 169.928802 246.37616 162.057068 252.836426 157.849045 256.620239 C 153.641022 260.404114 147.304749 266.650024 143.768417 270.5 C 140.232101 274.349976 135.012543 280.402466 132.169388 283.94989 C 129.326218 287.497375 127 290.807373 127 291.305481 C 127 291.803589 131.807602 287.621033 137.683578 282.010925 C 143.55954 276.400818 152.897034 268.087341 158.433563 263.53656 C 163.970108 258.985779 173.507385 251.918762 179.627518 247.832153 C 185.74765 243.745483 196.805023 237.388062 204.199463 233.704529 C 211.593903 230.020996 222.786514 225.164368 229.071945 222.912048 C 235.357376 220.659668 245.073242 217.775696 250.662766 216.503235 C 256.252289 215.230713 265.883942 213.630981 272.066437 212.948242 C 278.867981 212.197144 288.097778 211.949707 295.437317 212.321716 C 302.108826 212.659851 310.75412 213.606873 314.649078 214.426208 C 318.544067 215.245544 324.629578 217.006958 328.172485 218.340515 C 331.715393 219.674072 337.288452 222.250671 340.557068 224.066345 C 343.825684 225.882019 349.875092 230.7724 354.000244 234.933777 C 358.440216 239.412842 362.881561 245.108643 364.885345 248.893494 C 366.74704 252.409912 369.130798 258.034912 370.182617 261.393494 C 371.344666 265.104065 372.327667 272.053406 372.687988 279.105347 C 373.122681 287.613098 372.841614 293.311157 371.634918 300.453491 C 370.729614 305.812012 368.806854 313.639587 367.362122 317.848145 C 365.917389 322.056641 362.498749 329.971252 359.765137 335.436157 C 357.031494 340.901062 351.698242 349.987854 347.913452 355.628967 C 344.128662 361.270142 337.681793 369.910889 333.587128 374.830566 C 329.492432 379.750305 322.110199 387.993103 317.182159 393.147949 C 312.25412 398.302765 299.752167 410.165771 289.400055 419.510162 C 279.047943 428.854584 263.58548 442.863159 255.039017 450.64032 C 246.492554 458.417511 234.897949 469.892517 229.273224 476.14032 C 223.648499 482.388153 215.323502 492.306427 210.773224 498.180908 C 206.222946 504.05542 199.597733 513.505432 196.050537 519.180908 C 192.503326 524.856445 186.994812 534.674988 183.809387 541 C 180.623978 547.325012 175.993896 557.994995 173.52034 564.711182 C 171.046768 571.427368 167.691315 582.227356 166.063782 588.711182 C 164.436234 595.195068 162.51857 605.224976 161.802307 611 C 161.086029 616.775024 160.538361 628.924988 160.585251 638 C 160.64743 650.032837 161.26944 658.088013 162.88269 667.752625 C 164.099396 675.041565 166.632431 686.615356 168.511673 693.472168 C 170.3909 700.328918 173.745102 710.790222 175.965454 716.719482 C 178.185806 722.648804 182.685471 732.900024 185.964706 739.5 C 189.243927 746.099976 194.681 755.746277 198.047089 760.936157 C 201.413162 766.125977 206.34549 773.265381 209.007813 776.801392 C 211.67012 780.337402 217.545517 787.262085 222.06424 792.189514 C 229.747421 800.567627 230.171524 801.257019 228.605743 802.822815 C 227.039948 804.388611 226.734207 804.384033 223.889816 802.751526 C 222.216934 801.791443 216.778687 798.218628 211.804825 794.811951 C 206.830948 791.405273 198.652603 784.958008 193.630707 780.484619 C 188.608826 776.01123 180.735718 768.334717 176.134949 763.425598 C 171.534164 758.516541 164.334167 749.932922 160.134949 744.350952 C 155.93573 738.768982 149.692749 729.543945 146.261688 723.850952 C 142.830597 718.157959 137.591553 708.099976 134.619339 701.5 C 131.647141 694.900024 127.815605 685.224976 126.104843 680 C 124.394073 674.775024 121.873558 665.549988 120.503685 659.5 C 119.13382 653.450012 117.447586 643.549988 116.756508 637.5 C 116.06543 631.450012 115.5 617.935059 115.5 607.466736 C 115.5 594.213257 116.065414 584.495972 117.361954 575.466736 C 118.386032 568.335022 120.719452 556.424988 122.54734 549 C 124.375229 541.575012 127.511856 530.775024 129.517624 525 C 131.523392 519.224976 136.056366 508.4664 139.590912 501.09201 C 143.125458 493.717621 145.839157 487.505829 145.621368 487.288025 C 145.403564 487.070221 143.197281 489.953827 140.718491 493.696014 C 138.2397 497.438202 133.939651 504.774994 131.162811 510 C 128.385956 515.224976 124.049454 524.674988 121.526131 531 C 119.002808 537.325012 115.600128 547 113.964622 552.5 C 112.329117 558 109.901016 567.900024 108.568848 574.5 C 107.236671 581.099976 105.595558 592.056641 104.921921 598.848145 C 104.164665 606.482544 103.937675 616.789307 104.327286 625.848145 C 104.673882 633.906616 105.640625 644.775024 106.475609 650 C 107.3106 655.224976 108.630478 662.424988 109.408669 666 C 110.186859 669.575012 111.117462 674.299988 111.476669 676.5 C 112.10524 680.349731 111.925819 680.188477 106.70121 672.207703 C 103.7155 667.646912 99.000221 659.096924 96.222824 653.207703 C 93.445419 647.318481 89.746513 638.224976 88.003029 633 C 86.259544 627.775024 83.76091 618.325012 82.450508 612 C 81.140099 605.674988 79.377663 595.189453 78.533981 588.698792 C 77.651733 581.911499 77 569.288452 77 558.988037 C 77 549.137756 77.475838 536.448303 78.057419 530.789185 C 78.638992 525.130127 80.011322 515.325012 81.107025 509 C 82.202728 502.674988 84.188461 493.225006 85.51976 488 C 86.851059 482.774994 89.267914 474.450012 90.890541 469.5 C 92.513168 464.549988 95.40683 456.450012 97.320908 451.5 C 99.234985 446.549988 102.579613 438.674988 104.753426 434 C 106.927231 429.325012 111.320831 420.774994 114.516983 415 C 117.713127 409.225006 123.341934 399.995483 127.025436 394.48999 C 130.708939 388.984497 136.521332 380.958191 139.941864 376.653809 C 143.362396 372.349426 145.887161 368.553833 145.552444 368.219116 C 145.217743 367.884399 141.447327 371.185669 137.173752 375.555298 C 132.900177 379.924866 125.967461 387.789551 121.767723 393.032349 C 117.567986 398.275116 110.698914 407.725098 106.503128 414.032318 C 102.307343 420.339539 95.538559 432.25 91.461388 440.5 C 87.384216 448.75 82.006821 461.282837 79.51162 468.350739 C 77.016418 475.41864 73.428955 487.343628 71.539474 494.850739 C 69.650002 502.357819 67.293152 514.125 66.302032 521 C 64.935028 530.482422 64.5 539.737183 64.5 559.336792 C 64.5 585.173584 64.5 585.173584 62.24868 580.336792 C 61.010456 577.676575 58.175365 569.937256 55.948475 563.138306 C 53.721588 556.339294 50.82114 545.539307 49.503036 539.138306 C 48.184933 532.737183 46.296097 520.974976 45.305622 513 C 44.055176 502.931793 43.504032 491.623077 43.50238 476 C 43.501072 463.625 44.086662 447.707031 44.803692 440.62674 C 45.520721 433.546417 47.001022 422.746429 48.09325 416.62674 C 49.185474 410.507019 51.411697 400.213898 53.040409 393.753052 C 54.669117 387.292297 58.02425 375.859802 60.496254 368.347656 C 62.968258 360.835449 67.319336 349.246582 70.165306 342.594543 C 73.011276 335.942566 77.541199 326.065186 80.231796 320.644836 C 82.922394 315.224487 88.651733 304.864197 92.963669 297.621948 C 97.275604 290.379639 104.514633 279.28949 109.050407 272.977112 C 113.586174 266.664673 120.664185 257.450012 124.77932 252.5 C 128.894455 247.549988 137.715073 237.940796 144.380692 231.146179 C 151.04631 224.351563 160.324997 215.40918 165 211.274292 C 169.675003 207.139343 178.449997 200.050781 184.5 195.521912 C 190.550003 190.993042 200 184.46283 205.5 181.010315 C 211 177.5578 220.899994 171.898865 227.5 168.434875 C 234.100006 164.970886 244.344635 160.013062 250.265869 157.417542 C 256.187103 154.822021 260.855164 152.521851 260.639343 152.30603 C 260.423523 152.09021 254.725571 152.665405 247.977219 153.584229 C 239.302872 154.76532 232.014236 155.096741 223.103745 154.71521 C 216.171692 154.418396 207.912506 153.593201 204.75 152.881348 C 201.587494 152.169556 199 151.287292 199 150.920776 C 199 150.554321 201.137497 150.011536 203.75 149.7146 C 206.362503 149.417725 212.550003 148.024597 217.5 146.618835 C 222.449997 145.213074 230.324997 142.547791 235 140.695984 C 239.675003 138.844177 248.899994 134.558289 255.5 131.171753 C 262.100006 127.785217 272 122.528992 277.5 119.491333 C 287.5 113.968323 287.5 113.968323 280.5 114.734131 C 276.649994 115.155396 266.75 115.491394 258.5 115.480896 C 248.958038 115.468811 241.865646 114.976257 239.008408 114.127319 C 234.5168 112.792786 234.5168 112.792786 243.508408 110.512817 C 248.453781 109.25885 256.100006 106.826782 260.5 105.108215 C 264.899994 103.389709 272.550018 99.823303 277.5 97.182983 C 282.450012 94.542664 294.708527 87.042358 304.74118 80.515747 C 314.773834 73.989075 322.860352 68.526978 322.711182 68.377869 C 322.562012 68.228699 318.628479 69.629211 313.969971 71.490112 C 309.311493 73.351013 301.899994 75.827759 297.5 76.99408 C 293.100006 78.160339 286.125 79.358521 282 79.656616 L 274.5 80.198608 Z M 462.712494 91.929382 C 464.47937 91.968201 468.340057 91.096375 471.29184 89.992004 C 474.243622 88.887573 478.564178 86.352966 480.893127 84.359497 C 483.222046 82.366028 485.834808 79.655579 486.699219 78.336304 C 487.56366 77.017029 488.0448 75.711487 487.768463 75.43512 C 487.492096 75.158752 484.843658 76.899658 481.882996 79.303711 C 478.922363 81.707825 474.700012 84.659546 472.5 85.863159 C 470.299988 87.066772 466.475006 88.908203 464 89.955139 C 459.521057 91.849792 459.515045 91.85907 462.712494 91.929382 Z M 509 85.007446 C 512.025024 83.296631 524.397827 76.857605 536.495178 70.698425 C 548.592529 64.539307 563.151672 57.341003 568.848877 54.702271 C 574.546021 52.063538 582.858643 48.927307 587.321289 47.73291 C 593.468933 46.087524 598.350891 45.553833 607.46759 45.53064 C 614.085388 45.513794 622.424988 45.804321 626 46.17627 C 632.465515 46.848938 632.47876 46.845154 628.5 45.463196 C 626.299988 44.699097 620 43.130249 614.5 41.976929 C 608.779236 40.777283 598.509094 39.624023 590.5 39.281921 C 582.157593 38.925598 571.852722 39.166382 565 39.877808 C 558.674988 40.534424 552.150024 41.344238 550.5 41.677368 C 547.882324 42.205872 547.754883 42.374268 549.5 42.998901 C 551.054504 43.555298 550.38623 43.958191 546.5 44.807678 C 543.75 45.408813 539.700012 46.589111 537.5 47.430664 C 533.5 48.960693 533.5 48.960693 538 48.419861 C 540.474976 48.122437 547.652527 47.890625 553.950073 47.904724 C 560.24762 47.918884 566.06012 48.058594 566.86676 48.21521 C 567.673401 48.371826 563.645874 50.943909 557.916687 53.930908 C 552.1875 56.917969 543.224976 61.814209 538 64.811523 C 532.775024 67.808838 524.450012 72.902893 519.5 76.131653 C 514.549988 79.360413 508.924988 83.378174 507 85.060059 C 503.5 88.117981 503.5 88.117981 509 85.007446 Z M 458 82.389832 C 460.475006 82.070862 464.154388 81.241699 466.176392 80.547241 C 468.198425 79.852844 471.75061 77.781555 474.07016 75.944458 C 476.459137 74.052307 479.135468 70.687317 480.243347 68.1828 C 481.734467 64.81189 481.953979 63.255127 481.167267 61.630676 C 480.276581 59.791565 480.126099 60.069458 480.067688 63.661133 C 480.012024 67.083862 479.423309 68.308472 476.75 70.562622 C 474.962494 72.069885 472.051941 73.909912 470.282104 74.65155 C 468.512299 75.393188 465.002441 76 462.482452 76 C 459.962494 76 456.685516 75.367737 455.200348 74.595032 C 453.715149 73.822266 451.52774 72.134766 450.339417 70.845032 C 449.151093 69.555237 447.668457 66.577087 447.044647 64.226929 C 446.420868 61.876709 446.229462 59.437744 446.619293 58.807007 C 447.103119 58.02417 446.720551 57.875793 445.414032 58.3396 C 444.361328 58.713318 441.101318 61.602295 438.169586 64.759583 C 435.237854 67.916809 432.025665 70.922546 431.031403 71.438965 C 429.512939 72.227722 430.28598 72.925842 435.861816 75.801453 C 439.512817 77.684326 444.975006 80.067505 448 81.097412 C 451.76889 82.380493 454.916382 82.787292 458 82.389832 Z M 568.41333 79.592834 C 570.402893 78.757202 576.280823 76.294189 581.475403 74.119385 C 586.669983 71.94458 594.088074 69.165405 597.960083 67.943359 C 601.832031 66.721375 605 65.27533 605 64.729919 C 605 64.14917 603.50238 63.981323 601.385315 64.32489 C 599.397278 64.647522 593.65979 66.296265 588.635315 67.98877 C 583.610901 69.681335 576.375488 72.738708 572.55658 74.78302 C 568.737671 76.827393 565.42926 79.087708 565.204529 79.80603 C 564.886902 80.82135 565.601135 80.773926 568.41333 79.592834 Z M 397.5 69.519165 C 398.600006 69.192871 402.846527 67.349854 406.936737 65.423523 C 411.026917 63.497253 417.698761 59.655151 421.763031 56.885437 C 425.827271 54.115723 432.380768 50.078613 436.326294 47.914001 C 440.27182 45.749451 446.572876 43.028687 450.328613 41.86792 C 455.705139 40.206238 458.894806 39.853821 465.328613 40.210571 C 472.042847 40.582825 475.267914 41.40741 483.414032 44.834473 C 488.86676 47.128418 493.46701 48.866333 493.636841 48.696472 C 493.806671 48.526672 491.370361 46.624268 488.222809 44.468872 C 485.075256 42.313538 480.164764 39.346985 477.310577 37.876648 C 474.456421 36.406311 468.897278 34.627136 464.95697 33.922974 C 459.189972 32.892334 456.594025 32.886658 451.646362 33.893677 C 448.265869 34.581726 442.241577 36.702087 438.259064 38.60553 C 434.27655 40.509033 427.976563 44.364502 424.259064 47.173218 C 420.541595 49.981934 413.667664 55.479492 408.983704 59.390015 C 404.299744 63.300476 399.349731 67.312805 397.983704 68.306213 C 395.985535 69.759338 395.890961 69.99646 397.5 69.519165 Z M 464 62 C 465.429993 62 467.140015 61.460022 467.799988 60.799988 C 468.459991 60.140015 469 58.655029 469 57.5 C 469 56.344971 468.459991 54.859985 467.799988 54.200012 C 467.140015 53.539978 465.429993 53 464 53 C 462.570007 53 460.859985 53.539978 460.200012 54.200012 C 459.540009 54.859985 459 56.344971 459 57.5 C 459 58.655029 459.540009 60.140015 460.200012 60.799988 C 460.859985 61.460022 462.570007 62 464 62 Z M 508 37.924744 C 508.825012 37.95575 507.700012 36.906433 505.5 35.593018 C 503.299988 34.279602 498.799988 31.844788 495.5 30.182312 C 492.200012 28.519836 486.575012 26.178833 483 24.97998 C 479.424988 23.781189 473.575012 22.17804 470 21.417542 C 466.424988 20.656982 459.591919 20.026917 454.815369 20.017334 C 450.038818 20.007813 443.063843 20.646484 439.315369 21.436584 C 435.566925 22.226685 431.375 23.358459 430 23.951599 C 427.714874 24.937317 427.800812 24.985657 431 24.513794 C 432.924988 24.229858 440.545837 23.706116 447.935211 23.349915 C 458.686493 22.831604 462.746552 23.032532 468.258942 24.355469 C 472.047607 25.264771 479.951782 28.065613 485.82373 30.579529 C 491.695679 33.093506 498.75 35.761902 501.5 36.509399 C 504.25 37.256836 507.174988 37.893738 508 37.924744 Z"/>
            <path id="path1" fill="#094646" fill-rule="evenodd" stroke="none" d="M 530.5 621.866333 C 524.920227 610.366089 523.799683 609.152344 519.5 607.0177 C 515.857666 605.209473 513.006653 604.564636 509 604.643005 C 505.975006 604.702148 501.348907 605.61499 498.719818 606.671448 C 496.090698 607.727966 491.233521 610.562988 487.926056 612.971558 C 484.618591 615.380127 479.284058 620.450256 476.071503 624.238525 C 472.858978 628.026794 467.758636 634.585388 464.737396 638.81311 C 461.716156 643.040894 457.141937 650.146362 454.572479 654.603149 C 452.003021 659.059814 448.140869 666.78833 445.989929 671.777466 C 443.838959 676.766663 440.84903 685.045288 439.345612 690.174377 C 437.27475 697.239258 436.598511 701.73877 436.556061 708.735229 C 436.50293 717.487915 436.395477 717.939758 434.5 717.381409 C 433.399994 717.057434 430.631348 715.720764 428.347412 714.411133 C 426.063507 713.10144 421.718933 709.293945 418.69281 705.949951 C 415.666687 702.605957 411.549072 696.503174 409.542511 692.388245 C 407.53598 688.273315 405.004578 681.440063 403.917175 677.203247 C 402.829773 672.966431 401.485901 665.102905 400.930786 659.728638 C 400.245697 653.096008 400.25296 646.189819 400.9534 638.228638 C 401.520966 631.777893 402.672943 622.596252 403.513336 617.825073 C 404.35376 613.053833 407.094757 600.903809 409.604462 590.825073 C 413.195007 576.405762 414.06662 571.310181 413.693848 566.917725 C 413.433258 563.847473 411.17157 555.067566 408.667877 547.406799 C 406.060638 539.429321 403.629608 529.637451 402.978058 524.489136 C 402.308044 519.195007 402.122681 511.623657 402.527039 506.069794 C 402.904694 500.883179 404.258362 492.333191 405.535187 487.069794 C 406.812012 481.806396 409.266937 473.680878 410.99054 469.013092 C 412.714172 464.345276 416.809967 455.345276 420.092346 449.013092 C 423.374725 442.680878 428.953796 433.450012 432.490326 428.5 C 436.026855 423.549988 442.650818 415.475067 447.210205 410.555695 C 451.769592 405.636322 459.774994 398.066528 465 393.733948 C 470.225006 389.401367 478.774994 383.012695 484 379.536987 C 489.225006 376.061218 499.073853 370.415039 505.886322 366.989807 C 512.698792 363.564636 522.9104 359.014587 528.578735 356.87854 C 534.24707 354.742493 544.052612 351.662415 550.368835 350.033813 C 556.684998 348.405273 567.398438 346.316223 574.176392 345.391602 C 580.954407 344.466919 591.900024 343.663025 598.5 343.605164 C 605.099976 343.547302 615.900024 344.104065 622.5 344.842407 C 629.099976 345.58075 635.16864 346.558044 635.98584 347.01416 C 637.147461 347.662476 636.929199 347.961121 634.98584 348.382385 C 633.618652 348.678772 629.918884 349.419556 626.764221 350.028564 C 623.609558 350.637573 617.558716 352.269165 613.317932 353.654236 C 609.077148 355.039307 602.433289 357.777771 598.553711 359.739685 C 594.674194 361.701599 591.96759 363.468689 592.539063 363.666443 C 593.110596 363.864258 597.04425 363.139587 601.280579 362.056091 C 605.516907 360.972656 613.82428 359.559753 619.741455 358.916382 C 625.973389 358.238708 635.22583 358.011658 641.731995 358.376648 C 647.909546 358.723206 657.56073 359.897827 663.179077 360.986938 C 668.797363 362.07605 677.692993 364.310181 682.947083 365.951721 C 688.201172 367.593201 697.526489 371.417603 703.669983 374.450378 C 709.813416 377.483093 719.71344 383.214722 725.669983 387.187256 C 732.677307 391.860657 740.117981 398.045105 746.75 404.708344 C 752.387512 410.372406 757 415.435913 757 415.960602 C 757 416.485321 754.412476 415.379181 751.25 413.502563 C 748.087524 411.625946 741.900024 408.454712 737.5 406.455383 C 733.099976 404.456055 726.349976 401.773773 722.5 400.494781 C 718.650024 399.21579 711.224976 397.267273 706 396.164764 C 700.775024 395.062256 692.900024 393.913452 688.5 393.611816 C 680.5 393.063477 680.5 393.063477 685.5 394.578674 C 688.25 395.412048 694.51825 397.458771 699.429443 399.127014 C 704.340637 400.795258 712.215637 404.10202 716.929443 406.475403 C 721.64325 408.848785 729.549988 413.474792 734.5 416.755432 C 739.450012 420.036102 747.059143 425.879852 751.40918 429.741577 C 755.759216 433.603302 762.653442 440.528748 766.729736 445.131439 C 770.805969 449.734161 777.644958 458.711487 781.927551 465.081085 C 786.210144 471.450684 792.441406 482.250671 795.774841 489.081085 C 799.108276 495.911499 803.483337 505.963287 805.497253 511.418427 C 807.511169 516.873535 810.467102 526.323303 812.066101 532.417847 C 813.6651 538.512451 815.862549 548.899109 816.949402 555.49939 C 818.036255 562.099731 819.4422 573.799988 820.07373 581.5 C 820.705261 589.200012 820.985352 600.450012 820.696167 606.5 C 820.361084 613.51062 820.485901 616.411987 821.040405 614.5 C 821.51886 612.849976 822.718018 605.424988 823.7052 598 C 824.692322 590.575012 825.5 578.424988 825.5 571 C 825.5 563.575012 824.90863 552.775024 824.185852 547 C 823.463013 541.224976 822.04425 532.674988 821.032898 528 C 820.021606 523.325012 817.354858 513.875 815.106812 507 C 812.858765 500.125 809.059204 490.167755 806.663269 484.872772 C 804.267395 479.577789 799.512512 470.554169 796.096924 464.820313 C 792.681335 459.086426 787.77478 451.630585 785.19342 448.25177 C 782.612 444.872955 777.581177 438.596588 774.013672 434.30423 C 767.977478 427.041595 767.804016 426.701874 771.513672 429.408936 C 773.706177 431.00882 776.584534 433.25882 777.910156 434.408936 C 780.16095 436.361786 780.274536 436.373535 779.628845 434.586731 C 779.248596 433.534424 777.375 429.709442 775.465271 426.086731 C 773.555542 422.46402 768.957092 415.455688 765.246521 410.512665 C 761.53595 405.569611 754.674988 397.742035 750 393.117981 C 745.325012 388.494019 736.775024 381.355469 731 377.254578 C 725.224976 373.153687 715.099976 367.166321 708.5 363.949341 C 701.900024 360.732361 691.775024 356.47876 686.000061 354.496826 C 680.225037 352.514893 671.59491 350.023499 666.82196 348.960327 C 662.049072 347.897217 654.938965 346.729492 651.021851 346.365417 C 645.694458 345.8703 644.028259 345.368774 644.409546 344.375122 C 644.689941 343.64447 646.93689 339.548706 649.402832 335.273376 C 651.868713 330.997986 655.665894 323 657.841003 317.5 C 660.016052 312 662.854126 302.789978 664.147827 297.033325 C 666.100525 288.344299 666.5 283.758484 666.5 270.033325 C 666.5 257.501648 666.05249 251.563721 664.651123 245.5 C 663.634216 241.099976 661.341248 233.861328 659.555664 229.414001 C 657.77002 224.966675 654.255615 218.153687 651.74585 214.273987 C 649.236084 210.394226 644.017639 203.628174 640.149292 199.238281 C 636.280945 194.848328 628.927368 187.742249 623.807983 183.446899 C 618.688599 179.15155 609.775024 172.519653 604 168.709412 C 598.224976 164.89917 589.450012 159.72998 584.5 157.22229 C 579.549988 154.714661 571.674988 150.905518 567 148.757629 L 558.5 144.852295 L 566.66626 145.442566 C 571.157715 145.767212 579.7901 146.925537 585.849304 148.016541 C 591.908447 149.107605 601.958679 151.319641 608.182983 152.93219 C 614.407349 154.544739 624.175842 157.49823 629.890808 159.495483 C 635.605713 161.492798 644.644958 165.047241 649.977966 167.394287 C 655.310974 169.741333 665.035095 174.476563 671.587158 177.916931 C 678.139221 181.357361 690.474976 188.8125 699 194.484009 C 707.525024 200.155518 719.450012 208.744812 725.5 213.571472 C 731.549988 218.398071 744.385803 230.25647 754.023987 239.923523 C 763.66217 249.590576 775.717834 262.900024 780.814331 269.5 C 785.910828 276.099976 793.425415 286.523132 797.513367 292.662476 C 801.601379 298.801819 807.936707 309.151855 811.591919 315.662476 C 815.247131 322.173096 820.718872 332.900024 823.751343 339.5 C 826.783813 346.099976 831.177673 356.450012 833.515442 362.5 C 835.85321 368.549988 839.152771 378 840.847778 383.5 C 842.542786 389 845.297058 398.899994 846.968445 405.5 C 848.639832 412.100006 850.715393 421.549988 851.58075 426.5 C 852.446106 431.450012 853.803467 440.450012 854.597107 446.5 C 855.390747 452.549988 856.329163 467.399994 856.682434 479.5 C 857.088623 493.40921 856.886475 507.200317 856.132874 517 C 855.477295 525.525024 853.805603 539.924988 852.41803 549 C 851.030396 558.075012 847.920593 573.652344 845.507263 583.616394 C 843.093933 593.580444 838.449036 609.780396 835.185303 619.616394 C 831.921509 629.452393 826.451843 644.025024 823.030396 652 C 819.609009 659.974976 814.173157 671.674988 810.950745 678 C 807.728333 684.325012 801.986084 694.725952 798.190125 701.113281 C 794.394165 707.500549 788.18988 717.175537 784.402832 722.613281 C 780.615723 728.050964 773.038086 738.125 767.563599 745 C 762.089111 751.875 750.835266 764.418213 742.554993 772.873718 C 734.27478 781.329285 722.549988 792.526001 716.5 797.75531 C 710.450012 802.984619 700.001038 811.366455 693.28009 816.381592 C 686.559143 821.396729 674.409119 829.680542 666.28009 834.790161 C 658.151062 839.899719 641.825012 848.924011 630 854.844055 C 618.174988 860.764099 601.468506 868.372375 592.874451 871.751282 C 584.280396 875.130188 571.395386 879.691956 564.24115 881.888611 C 557.086914 884.085266 545.650146 887.232422 538.826111 888.882324 C 532.002136 890.532227 520.003113 893.0625 512.16156 894.505127 C 504.320007 895.947693 492.863281 897.777161 486.702118 898.570496 C 480.104523 899.420044 462.963226 900.194885 445 900.455627 C 423.466919 900.768127 410.215973 900.488953 399.928375 899.506226 C 391.913971 898.740601 379.8526 897.190369 373.125336 896.061279 C 366.398041 894.932251 354.577759 892.624939 346.858002 890.934082 C 339.138245 889.243164 326.764954 886.088501 319.361816 883.923706 C 311.958649 881.758911 300.411194 877.908325 293.700775 875.366882 C 286.990356 872.825439 276.550018 868.442383 270.5 865.626709 C 264.450012 862.811096 255.00415 858.105713 249.509232 855.17041 C 244.014297 852.235107 236.452499 847.795227 232.705246 845.304016 C 228.957977 842.812866 226.028824 840.644531 226.196014 840.485474 C 226.363205 840.326477 231.675003 841.285461 238 842.616638 C 244.324997 843.947815 255.800003 845.694763 263.5 846.498718 C 271.200012 847.302673 284.024994 847.964905 292 847.970276 C 299.975006 847.975647 312.125 847.346619 319 846.572449 C 325.875 845.798279 336.041962 844.233643 341.593231 843.095459 C 347.144501 841.957275 355.684875 839.86731 360.571838 838.451172 C 365.458801 837.034973 373.981445 834.171387 379.511078 832.087646 C 385.04071 830.003845 395.041718 825.506714 401.735535 822.094055 C 408.429352 818.681335 418.188965 813.025635 423.423584 809.525818 C 428.658173 806.026001 437.182159 799.751404 442.365784 795.582153 C 447.549377 791.412964 455.223969 784.352051 459.42041 779.891235 C 463.616852 775.430359 470.987488 766.54248 475.799591 760.140259 C 480.611725 753.738159 487.800232 743.053711 491.774017 736.397156 C 495.747833 729.740601 501.420349 719.165588 504.379578 712.897156 C 507.338806 706.628723 511.783875 696.325012 514.257568 690 C 516.731201 683.674988 521.762268 669.724976 525.437683 659 C 529.276428 647.798584 535.237915 633.116455 539.446045 624.5 C 543.47522 616.25 549.036926 606.125 551.805359 602 C 554.573853 597.875 560.254211 591.026489 564.428467 586.781128 C 568.602722 582.535767 574.60144 577.310669 577.758972 575.1698 C 580.916565 573.02887 586.016846 570.128296 589.093018 568.723999 C 592.169189 567.319702 597.119202 565.446167 600.093018 564.560669 C 603.066833 563.675171 609.325012 562.692078 614 562.375977 C 619.902344 561.976929 624.792053 562.284302 630 563.381714 C 634.125 564.250854 641.325012 566.83374 646 569.121338 C 652.864319 572.480225 656.168396 574.959839 663.170227 582.006775 C 670.803284 589.689087 672.501221 592.094604 677.364868 602.116455 C 681.092651 609.797729 683.801758 617.240173 685.694702 625 C 688.32489 635.782043 688.5 637.842285 688.5 658 C 688.5 677.495605 688.24054 680.805176 685.717102 693.5 C 684.186523 701.200012 680.714233 714.151001 678.000854 722.280029 C 675.287476 730.408997 670.334717 742.772766 666.99469 749.755005 C 663.654724 756.737305 658.404297 766.511292 655.327148 771.475037 C 652.25 776.438782 646.53241 784.775024 642.621521 790 C 638.710571 795.224976 630.333313 804.843201 624.005371 811.373779 C 617.677429 817.904297 608 826.873169 602.5 831.304504 C 597 835.73584 588.115356 842.236877 582.756348 845.751282 C 577.397339 849.265686 566.597351 855.516418 558.756348 859.641846 C 550.915344 863.767212 545.842773 866.850464 547.483887 866.49353 C 549.125 866.136536 554.038818 864.467346 558.403503 862.78418 C 562.768127 861.100952 571.845703 856.896851 578.575806 853.44165 C 585.305969 849.986511 595.467102 844.147949 601.156189 840.467163 C 606.845276 836.786316 614.546814 831.323486 618.270691 828.327576 C 621.994568 825.331604 628.140259 820.094788 631.927856 816.690186 C 635.715393 813.285583 642.180115 806.605408 646.293762 801.845337 C 650.407471 797.085327 656.931519 788.760315 660.791626 783.345337 C 664.651733 777.93042 670.525757 768.608887 673.845032 762.630859 C 677.164307 756.652832 682.159485 746.217834 684.945435 739.442017 C 687.731384 732.666199 691.585999 721.649719 693.51123 714.960938 C 695.436462 708.272095 697.943848 697.782104 699.083191 691.649719 C 700.302185 685.088928 701.393677 673.914795 701.735291 664.5 C 702.100464 654.435486 701.868408 644.890198 701.10968 638.769165 C 700.446289 633.417236 698.798157 624.7854 697.447144 619.587402 C 696.09613 614.389282 693.496765 606.593994 691.670776 602.264404 C 689.844788 597.934875 686.317993 591.266663 683.833374 587.446289 C 681.348816 583.625854 677.161316 578.118713 674.527832 575.208252 C 671.894287 572.297852 667.172668 567.941284 664.035339 565.527161 C 660.897949 563.113037 655.669006 559.79541 652.415527 558.154663 C 649.161987 556.513977 643.723694 554.269287 640.330444 553.166443 C 636.937256 552.063599 630.640381 550.627625 626.337463 549.975342 C 621.872131 549.298462 615.621277 549.074463 611.774719 549.453552 C 608.068054 549.818787 601.845459 551.001587 597.946655 552.082031 C 594.047913 553.162354 587.852478 555.562012 584.179016 557.414429 C 580.505554 559.266907 574.799988 562.776001 571.5 565.212341 C 568.200012 567.648682 562.392822 572.985107 558.595215 577.071045 C 554.797546 581.156982 549.012085 588.549988 545.738586 593.5 C 542.465027 598.450012 537.697205 606.857422 535.143372 612.183167 L 530.5 621.866333 Z M 470.802979 795.73053 C 473.169647 794.382507 478.709717 790.440979 483.114288 786.971619 C 487.51886 783.502258 495.032532 776.51532 499.81131 771.445068 C 504.82843 766.121887 511.223907 757.847229 514.946106 751.86322 C 518.491455 746.163452 523.368835 736.852356 525.784729 731.171936 C 528.200623 725.491516 529.942627 720.609253 529.655823 720.32251 C 529.36908 720.035767 527.954163 722.130371 526.511536 724.977234 C 525.06897 727.824036 521.831604 733.362427 519.317505 737.284729 C 516.803345 741.207031 511.625336 748.586792 507.81076 753.684143 C 503.996185 758.781555 496.63736 767.638794 491.457825 773.366882 C 486.27829 779.094971 478.543884 787.021606 474.270233 790.981567 C 467.475555 797.277588 467.040222 797.873779 470.802979 795.73053 Z M 789.783691 692.5 C 791.346008 689.200012 794.269958 682.42157 796.281372 677.436829 C 798.292786 672.452148 801.256958 663.227112 802.868347 656.936829 C 804.479797 650.646606 806.535583 641.224976 807.436707 636 C 808.337891 630.775024 809.352234 621.207031 809.690857 614.737915 C 810.065125 607.588623 809.823792 598.960815 809.075623 592.737915 C 808.398682 587.107056 807.000793 578.900024 805.96936 574.5 C 804.937866 570.099976 803.01123 563.349976 801.687927 559.5 C 800.364624 555.650024 797.45752 548.900024 795.227783 544.5 C 792.997986 540.099976 789.06958 533.349976 786.497925 529.5 C 783.92627 525.650024 782.055359 523.174988 782.340271 524 C 782.625244 524.825012 784.424866 529.152344 786.339417 533.616333 C 788.253967 538.080322 791.163513 545.955322 792.804993 551.116333 C 794.446533 556.277344 797.074402 567.025024 798.644775 575 C 801.292725 588.447388 801.5 591.205994 801.5 613 C 801.5 630.661865 801.05426 639.356934 799.705811 648 C 798.718994 654.325012 796.756287 664.217651 795.344299 669.983765 C 793.932312 675.749756 791.702759 683.624756 790.389832 687.483765 C 789.076843 691.342651 787.764221 695.400024 787.4729 696.5 C 787.18158 697.599976 788.221436 695.799988 789.783691 692.5 Z M 421.090485 671 C 421.479218 666.325012 422.938263 658 424.332794 652.5 C 425.727295 647 428.519623 638.233521 430.537964 633.018921 C 432.556274 627.80426 435.706329 620.561768 437.538086 616.924316 C 439.369843 613.286987 442.291992 607.878479 444.031799 604.905518 C 445.771576 601.932495 448.089355 597.924988 449.182434 596 C 451.16983 592.5 451.16983 592.5 447.550537 596.5 C 445.559906 598.700012 441.787048 603.200012 439.166382 606.5 C 436.545715 609.799988 432.964661 614.601013 431.208527 617.168945 C 429.452362 619.736816 426.917877 624.911804 425.576355 628.668945 C 424.234802 632.426025 422.438507 638.237183 421.584595 641.582642 C 420.730652 644.928101 419.737579 652.157715 419.377747 657.648376 C 419.017914 663.139099 419.097046 670.30188 419.553619 673.565735 C 420.383698 679.5 420.383698 679.5 421.090485 671 Z M 425.5 616.5 C 426.860992 601.05304 428.4505 593.409241 430.587006 586.562256 C 432.642822 579.973877 433.985657 573.611511 433.963928 570.562256 C 433.927856 565.5 433.927856 565.5 432.117493 570.5 C 431.121796 573.25 429.144348 577.785767 427.723145 580.579468 C 426.30191 583.373169 424.278961 588.206848 423.227661 591.320923 C 422.176361 594.434998 421.02005 596.686707 420.658112 596.324768 C 420.296143 595.962769 420 597.065918 420 598.776123 C 420 600.486328 421.237488 605.173828 422.75 609.192749 L 425.5 616.5 Z M 484.810699 567.099365 C 485.739807 566.601074 488.194183 564.546753 490.264862 562.534119 C 492.335541 560.521545 495.186096 556.592896 496.599426 553.803833 C 498.012756 551.014771 499.412476 547.105408 499.70993 545.116394 C 500.188568 541.916016 500.080414 541.672546 498.769714 543 C 497.955139 543.825012 495.901428 546.974976 494.205902 550 C 492.510345 553.025024 489.068176 557.901855 486.55658 560.837463 C 484.045013 563.773071 482.244629 566.586792 482.555725 567.09021 C 482.895172 567.639404 483.796967 567.643066 484.810699 567.099365 Z M 456.212494 546.968323 C 460.538177 546.98877 464.81958 546.291138 468.253265 545.00647 C 471.241577 543.888367 475.188812 541.363159 477.241425 539.25647 C 479.254364 537.19043 481.794708 533.474976 482.886688 531 C 483.978638 528.525024 485.609009 522 486.509735 516.5 C 487.410461 511 489.018311 503.799988 490.082764 500.5 C 491.147186 497.200012 493.362915 492.25 495.006592 489.5 C 496.650269 486.75 498.783691 483.377838 499.747559 482.006317 C 500.911194 480.350464 499.736877 480.990356 496.252411 483.910797 C 493.366241 486.329834 489.227997 490.612091 487.056366 493.426941 C 484.884705 496.241821 481.79422 501.459808 480.18866 505.022461 C 478.583069 508.585114 475.762451 515.099976 473.920593 519.5 C 471.149445 526.119995 469.271851 528.808472 463.035889 535.085083 C 458.891144 539.256897 454.149994 543.630127 452.5 544.803406 C 449.5 546.936646 449.5 546.936646 456.212494 546.968323 Z M 678.401917 321.5 C 680.842957 318.75 684.273193 314.150452 686.024658 311.278809 C 687.776184 308.407104 690.279968 303.406677 691.588684 300.166687 C 692.897339 296.926697 694.444336 290.951233 695.026428 286.887878 C 695.608521 282.824524 695.799683 276.575012 695.451233 273 C 695.102783 269.424988 694.44928 265.150024 693.999023 263.5 C 693.352173 261.129639 693.158691 261.969177 693.077026 267.5 C 693.020203 271.349976 692.127319 278.549988 691.092896 283.5 C 690.058411 288.450012 687.833984 296.24469 686.14978 300.821533 C 684.465515 305.398315 681.034607 313.04834 678.525574 317.821533 C 673.963623 326.5 673.963623 326.5 678.401917 321.5 Z"/>
        </g>
    </g>
</svg>
